<?xml version="1.0" encoding="UTF-8"?>
<svg id="Ebene_1" xmlns="http://www.w3.org/2000/svg" version="1.1" viewBox="0 0 795 191.183">
  <!-- Generator: Adobe Illustrator 29.7.1, SVG Export Plug-In . SVG Version: 2.1.1 Build 8)  -->
  <defs>
    <style>
      .st0 {
        fill: #00d80a;
      }

      .st1 {
        isolation: isolate;
      }

      .st2 {
        fill: #fff;
      }

      .st3 {
        fill: #666;
      }
    </style>
  </defs>
  <rect class="st0" x="253.072" y="109.046" width="308.473" height="60.818"/>
  <g class="st1">
    <g class="st1">
      <path class="st2" d="M298.394,159.196h-6.399v-25.707c0-3.067.072-5.501.218-7.298-.418.436-.931.917-1.539,1.443-.608.526-2.646,2.196-6.113,5.011l-3.213-4.058,11.709-9.204h5.337v39.812Z"/>
      <path class="st2" d="M333.963,139.29c0,6.917-1.112,12.055-3.336,15.413-2.224,3.358-5.623,5.038-10.198,5.038-4.43,0-7.788-1.733-10.076-5.201s-3.431-8.551-3.431-15.25c0-7.026,1.112-12.204,3.336-15.536,2.224-3.331,5.614-4.997,10.171-4.997,4.448,0,7.815,1.743,10.103,5.229,2.288,3.486,3.431,8.588,3.431,15.305ZM313.403,139.29c0,5.429.559,9.304,1.675,11.628,1.117,2.324,2.9,3.485,5.351,3.485s4.244-1.18,5.378-3.54c1.134-2.359,1.702-6.218,1.702-11.573s-.567-9.2-1.702-11.587c-1.135-2.388-2.928-3.581-5.378-3.581s-4.234,1.171-5.351,3.513c-1.116,2.342-1.675,6.227-1.675,11.655Z"/>
      <path class="st2" d="M365.797,139.29c0,6.917-1.112,12.055-3.336,15.413-2.224,3.358-5.623,5.038-10.198,5.038-4.43,0-7.788-1.733-10.076-5.201s-3.431-8.551-3.431-15.25c0-7.026,1.112-12.204,3.336-15.536,2.224-3.331,5.614-4.997,10.171-4.997,4.448,0,7.815,1.743,10.103,5.229,2.288,3.486,3.431,8.588,3.431,15.305ZM345.237,139.29c0,5.429.559,9.304,1.675,11.628,1.117,2.324,2.9,3.485,5.351,3.485s4.244-1.18,5.378-3.54c1.134-2.359,1.702-6.218,1.702-11.573s-.567-9.2-1.702-11.587c-1.135-2.388-2.928-3.581-5.378-3.581s-4.234,1.171-5.351,3.513c-1.116,2.342-1.675,6.227-1.675,11.655Z"/>
      <path class="st2" d="M388.045,131.257c0,4.176-.749,7.312-2.247,9.408-1.498,2.097-3.708,3.146-6.631,3.146-2.76,0-4.897-1.085-6.413-3.255-1.516-2.169-2.274-5.269-2.274-9.299,0-8.297,2.896-12.445,8.687-12.445,2.85,0,5.042,1.075,6.576,3.227s2.301,5.225,2.301,9.219ZM375.791,131.311c0,2.706.263,4.721.79,6.046s1.389,1.988,2.587,1.988c2.396,0,3.594-2.678,3.594-8.034s-1.198-8.033-3.594-8.033c-1.198,0-2.061.663-2.587,1.988s-.79,3.341-.79,6.045ZM405.882,119.384l-22.084,39.812h-5.283l22.085-39.812h5.282ZM413.97,147.214c0,4.176-.753,7.308-2.26,9.396s-3.704,3.132-6.59,3.132c-2.76,0-4.902-1.076-6.427-3.228-1.525-2.151-2.288-5.251-2.288-9.3,0-8.296,2.904-12.444,8.715-12.444,2.795,0,4.97,1.071,6.521,3.213,1.553,2.143,2.328,5.22,2.328,9.231ZM401.716,147.214c0,2.706.268,4.729.803,6.073.536,1.344,1.403,2.015,2.602,2.015,2.378,0,3.567-2.695,3.567-8.088,0-5.318-1.189-7.979-3.567-7.979-1.198,0-2.065.653-2.602,1.961-.535,1.307-.803,3.313-.803,6.018Z"/>
      <path class="st2" d="M450.434,133.925h-7.353v25.271h-6.427v-25.271h-4.956v-2.995l4.956-1.961v-1.96c0-3.559.835-6.195,2.506-7.911,1.67-1.716,4.221-2.573,7.651-2.573,2.251,0,4.467.372,6.645,1.116l-1.688,4.848c-1.579-.509-3.086-.763-4.52-.763-1.453,0-2.511.449-3.173,1.348-.663.898-.994,2.247-.994,4.044v1.961h7.353v4.847Z"/>
      <path class="st2" d="M470.83,128.533c1.289,0,2.352.091,3.187.272l-.626,5.964c-.908-.218-1.853-.327-2.832-.327-2.561,0-4.635.836-6.223,2.506-1.589,1.67-2.383,3.839-2.383,6.508v15.74h-6.399v-30.118h5.011l.844,5.31h.327c.998-1.797,2.301-3.222,3.907-4.275,1.607-1.053,3.336-1.579,5.188-1.579Z"/>
      <path class="st2" d="M492.751,159.741c-4.684,0-8.346-1.366-10.987-4.099s-3.963-6.495-3.963-11.288c0-4.919,1.226-8.786,3.677-11.601,2.451-2.813,5.818-4.221,10.103-4.221,3.977,0,7.117,1.208,9.423,3.622,2.305,2.414,3.458,5.736,3.458,9.967v3.458h-20.069c.09,2.924.88,5.17,2.369,6.74,1.488,1.57,3.585,2.355,6.29,2.355,1.779,0,3.436-.168,4.97-.504s3.182-.894,4.942-1.675v5.201c-1.562.745-3.141,1.271-4.738,1.58s-3.422.463-5.474.463ZM491.58,133.381c-2.033,0-3.662.645-4.888,1.934s-1.957,3.168-2.192,5.637h13.671c-.037-2.487-.636-4.371-1.798-5.65-1.162-1.28-2.76-1.92-4.793-1.92Z"/>
      <path class="st2" d="M524.885,159.741c-4.684,0-8.346-1.366-10.987-4.099s-3.963-6.495-3.963-11.288c0-4.919,1.226-8.786,3.677-11.601,2.451-2.813,5.818-4.221,10.103-4.221,3.977,0,7.117,1.208,9.423,3.622,2.305,2.414,3.458,5.736,3.458,9.967v3.458h-20.069c.09,2.924.88,5.17,2.369,6.74,1.488,1.57,3.585,2.355,6.29,2.355,1.779,0,3.436-.168,4.97-.504s3.182-.894,4.942-1.675v5.201c-1.562.745-3.141,1.271-4.738,1.58s-3.422.463-5.474.463ZM523.714,133.381c-2.033,0-3.662.645-4.888,1.934s-1.957,3.168-2.192,5.637h13.671c-.037-2.487-.636-4.371-1.798-5.65-1.162-1.28-2.76-1.92-4.793-1.92Z"/>
    </g>
  </g>
  <g>
    <path class="st3" d="M70.019,86.935v-31.74h-5.845l.812-6.738h13.881v38.478h-8.849ZM69.288,40.42v-7.306h9.66v7.306h-9.66Z"/>
    <path class="st3" d="M89.176,86.935v-38.478h8.118l.406,4.059c1.894-1.514,3.978-2.706,6.251-3.572,2.273-.865,4.708-1.299,7.306-1.299,2.76,0,4.912.446,6.454,1.339,1.542.893,2.72,2.125,3.531,3.694,1.786-1.461,3.842-2.665,6.17-3.613,2.326-.946,5.114-1.42,8.361-1.42,4.437,0,7.712,1.137,9.823,3.41,2.11,2.273,3.166,5.764,3.166,10.472v25.408h-8.686v-24.516c0-2.976-.623-5.06-1.867-6.25-1.246-1.19-3.275-1.786-6.088-1.786-1.84,0-3.586.325-5.236.974-1.651.649-3.072,1.624-4.262,2.922.162.596.27,1.217.325,1.867.053.649.081,1.354.081,2.111v24.678h-8.199v-24.435c0-2.812-.487-4.871-1.461-6.169s-2.814-1.948-5.52-1.948c-1.895,0-3.694.446-5.398,1.339s-3.234,1.962-4.586,3.207v28.006h-8.686Z"/>
    <path class="st3" d="M169.459,87.746c-2.435,0-4.695-.434-6.778-1.299-2.084-.865-3.748-2.178-4.992-3.937-1.246-1.759-1.867-3.938-1.867-6.535,0-3.68,1.258-6.643,3.775-8.889,2.516-2.245,6.399-3.369,11.649-3.369h12.339v-1.705c0-1.839-.284-3.3-.853-4.383-.568-1.082-1.597-1.867-3.084-2.354-1.489-.487-3.667-.731-6.535-.731-4.546,0-8.795.678-12.745,2.03v-6.576c1.731-.703,3.842-1.271,6.332-1.705,2.488-.433,5.167-.649,8.037-.649,5.627,0,9.916,1.137,12.866,3.41,2.949,2.273,4.424,5.98,4.424,11.122v24.759h-7.549l-.568-3.896c-1.57,1.516-3.504,2.679-5.804,3.49-2.301.812-5.183,1.218-8.646,1.218ZM171.813,81.414c2.651,0,4.965-.446,6.941-1.339,1.975-.894,3.584-2.097,4.83-3.612v-6.738h-12.177c-2.598,0-4.479.501-5.642,1.502-1.165,1.002-1.746,2.53-1.746,4.587,0,2.003.676,3.438,2.03,4.302,1.352.867,3.273,1.299,5.763,1.299Z"/>
    <path class="st3" d="M217.435,101.222c-2.869,0-5.737-.176-8.604-.527-2.869-.353-5.305-.881-7.306-1.583v-6.819c2.164.703,4.654,1.244,7.468,1.624,2.813.378,5.492.568,8.037.568,3.896,0,6.738-.217,8.523-.649,1.786-.434,2.679-1.408,2.679-2.923,0-1.137-.434-1.936-1.299-2.395-.867-.461-2.517-.69-4.952-.69h-10.391c-6.981,0-10.472-2.462-10.472-7.387,0-1.569.459-3.03,1.38-4.384.919-1.352,2.381-2.381,4.383-3.085-2.219-1.082-3.855-2.569-4.911-4.465-1.055-1.894-1.583-4.166-1.583-6.818,0-4.924,1.474-8.496,4.424-10.716,2.949-2.218,7.373-3.328,13.272-3.328,1.245,0,2.543.095,3.896.284,1.352.19,2.408.365,3.166.528h14.125l-.244,5.763h-6.494c1.027.867,1.786,1.949,2.273,3.248.487,1.299.73,2.707.73,4.221,0,4.113-1.246,7.347-3.734,9.7-2.49,2.354-6.251,3.531-11.284,3.531-.866,0-1.664-.04-2.395-.121-.73-.081-1.529-.176-2.395-.284-1.624.162-3.085.596-4.384,1.299-1.299.704-1.948,1.651-1.948,2.841,0,.812.325,1.395.974,1.745.649.353,1.731.528,3.247.528h10.797c3.842,0,6.805.825,8.889,2.476,2.083,1.651,3.125,4.045,3.125,7.185,0,3.787-1.637,6.507-4.911,8.158-3.275,1.65-7.969,2.476-14.084,2.476ZM218.084,69.319c3.518,0,5.967-.595,7.347-1.786,1.38-1.189,2.07-3.22,2.07-6.089s-.69-4.951-2.07-6.25c-1.38-1.299-3.829-1.949-7.347-1.949-3.302,0-5.71.623-7.225,1.867-1.516,1.246-2.273,3.356-2.273,6.332,0,2.761.716,4.764,2.151,6.008,1.434,1.245,3.883,1.867,7.347,1.867Z"/>
    <path class="st3" d="M265.492,87.746c-6.711,0-11.906-1.65-15.586-4.951-3.681-3.301-5.52-8.361-5.52-15.181,0-6.17,1.569-11.04,4.708-14.612,3.138-3.572,7.901-5.358,14.288-5.358,5.845,0,10.241,1.53,13.191,4.586,2.949,3.058,4.424,6.996,4.424,11.811v7.145h-28.168c.433,3.733,1.786,6.305,4.059,7.712s5.735,2.11,10.391,2.11c1.948,0,3.95-.189,6.007-.568,2.056-.378,3.842-.865,5.357-1.461v6.494c-1.732.758-3.721,1.326-5.966,1.704-2.247.378-4.641.568-7.185.568ZM252.828,65.423h20.375v-2.68c0-2.65-.73-4.721-2.192-6.209-1.461-1.488-3.924-2.232-7.387-2.232-4.114,0-6.941.893-8.483,2.679-1.542,1.786-2.313,4.6-2.313,8.443Z"/>
    <path class="st3" d="M326.129,87.746c-4.708,0-8.808-.73-12.299-2.191-3.49-1.461-6.21-3.666-8.158-6.616-1.948-2.949-2.922-6.697-2.922-11.243s.974-8.307,2.922-11.284c1.948-2.976,4.681-5.181,8.199-6.616,3.517-1.434,7.576-2.151,12.176-2.151,2.976,0,5.668.203,8.077.609,2.408.406,4.694,1.124,6.86,2.151v12.176c-3.302-1.568-6.981-2.354-11.041-2.354-3.139,0-5.493.555-7.062,1.664-1.57,1.109-2.354,3.044-2.354,5.804,0,2.652.784,4.56,2.354,5.724,1.569,1.164,3.95,1.745,7.144,1.745,1.948,0,3.869-.257,5.764-.771,1.894-.514,3.679-1.204,5.357-2.07v12.745c-2.165.975-4.479,1.664-6.94,2.07-2.463.405-5.155.608-8.077.608Z"/>
    <path class="st3" d="M367.691,87.746c-7.902,0-13.759-1.69-17.575-5.073-3.815-3.382-5.723-8.374-5.723-14.978s1.92-11.594,5.764-14.977c3.842-3.382,9.687-5.074,17.534-5.074,7.901,0,13.787,1.692,17.656,5.074,3.869,3.383,5.804,8.375,5.804,14.977s-1.921,11.596-5.764,14.978c-3.843,3.383-9.741,5.073-17.697,5.073ZM367.691,75.164c1.948,0,3.382-.568,4.303-1.705.919-1.137,1.38-3.057,1.38-5.764s-.46-4.627-1.38-5.764c-.921-1.137-2.354-1.704-4.303-1.704-1.895,0-3.288.567-4.181,1.704-.893,1.137-1.339,3.059-1.339,5.764s.447,4.627,1.339,5.764c.893,1.137,2.286,1.705,4.181,1.705Z"/>
    <path class="st3" d="M396.022,86.935v-38.478h16.154l.406,2.76c1.568-1.027,3.369-1.88,5.398-2.557,2.029-.676,4.289-1.015,6.779-1.015,2.381,0,4.246.339,5.6,1.015,1.354.677,2.463,1.638,3.328,2.882,1.732-1.189,3.68-2.137,5.846-2.841,2.164-.703,4.68-1.055,7.549-1.055,4.547,0,7.861,1.205,9.945,3.612,2.082,2.409,3.125,6.021,3.125,10.837v24.841h-17.129v-22.811c0-1.245-.258-2.151-.771-2.72s-1.393-.853-2.637-.853c-1.516,0-2.762.542-3.734,1.624.053.758.08,1.488.08,2.191v22.567h-16.154v-23.136c0-1.137-.203-1.961-.609-2.476-.404-.514-1.15-.771-2.23-.771-.76,0-1.49.203-2.193.609-.703.405-1.354.906-1.947,1.501v24.272h-16.804Z"/>
    <path class="st3" d="M466.239,103.819v-55.363h15.099l.812,2.841c1.515-1.136,3.166-2.029,4.951-2.679,1.786-.649,3.896-.974,6.332-.974,5.79,0,10.241,1.542,13.354,4.627,3.112,3.085,4.668,8.092,4.668,15.019,0,6.873-1.664,12.001-4.992,15.383-3.328,3.383-7.915,5.073-13.76,5.073-1.623,0-3.247-.162-4.87-.486-1.624-.325-3.004-.758-4.141-1.3v17.859h-17.453ZM488.319,75.164c1.731,0,3.058-.581,3.978-1.745s1.381-3.152,1.381-5.967c0-2.761-.447-4.654-1.34-5.683-.893-1.027-2.206-1.542-3.938-1.542-1.785,0-3.355.596-4.708,1.785v11.608c.703.542,1.393.934,2.07,1.178.676.243,1.528.365,2.557.365Z"/>
    <path class="st3" d="M516.325,86.935v-38.478h16.966l.406,2.679c1.461-.865,3.382-1.65,5.764-2.354,2.381-.703,4.816-1.082,7.306-1.137v12.907c-1.354.055-2.854.19-4.505.406-1.651.217-3.221.474-4.709.771-1.488.299-2.747.664-3.774,1.097v24.109h-17.453Z"/>
    <path class="st3" d="M570.958,87.746c-4.493,0-8.511-.744-12.055-2.232-3.546-1.487-6.319-3.72-8.321-6.697-2.003-2.976-3.003-6.628-3.003-10.959,0-6.114,1.771-11.012,5.316-14.693,3.544-3.68,8.861-5.52,15.952-5.52,6.439,0,11.526,1.611,15.261,4.83,3.734,3.221,5.602,7.726,5.602,13.517v6.656h-26.14c1.407,2.977,5.358,4.465,11.853,4.465,2.381,0,4.68-.203,6.899-.609,2.219-.405,4.005-.879,5.358-1.42v9.903c-3.844,1.841-9.417,2.76-16.723,2.76ZM563.57,63.556h11.203v-1.056c0-1.137-.394-2.11-1.178-2.922-.785-.812-2.179-1.218-4.181-1.218-2.165,0-3.681.46-4.546,1.38-.866.921-1.299,2.191-1.299,3.815Z"/>
    <path class="st3" d="M609.923,87.746c-3.464,0-6.737-.257-9.822-.771s-5.467-1.123-7.144-1.827v-11.689c1.299.649,2.772,1.205,4.425,1.664,1.649.461,3.313.799,4.992,1.015,1.677.217,3.111.325,4.302.325,1.569,0,2.813-.041,3.734-.122.92-.081,1.38-.446,1.38-1.096,0-.54-.42-.975-1.258-1.299-.84-.325-1.936-.662-3.288-1.015-1.354-.352-2.841-.798-4.465-1.34-3.519-1.299-6.102-2.772-7.752-4.424-1.651-1.65-2.476-4.045-2.476-7.185,0-4.004,1.609-7.062,4.83-9.173,3.219-2.111,8.211-3.166,14.977-3.166,1.677,0,3.463.095,5.358.284,1.894.19,3.693.42,5.397.69,1.705.271,3.071.596,4.1.974v11.527c-1.678-.757-3.49-1.312-5.438-1.664-1.948-.352-3.708-.528-5.276-.528-1.408,0-2.788.055-4.141.163-1.354.108-2.029.487-2.029,1.137,0,.703.798,1.217,2.395,1.542,1.596.324,3.559.866,5.886,1.623,2.868.812,5.101,1.733,6.697,2.761,1.596,1.028,2.72,2.272,3.369,3.734.649,1.461.974,3.247.974,5.357,0,3.896-1.664,6.954-4.992,9.173-3.328,2.22-8.239,3.328-14.734,3.328Z"/>
    <path class="st3" d="M648.239,87.746c-3.464,0-6.737-.257-9.822-.771s-5.467-1.123-7.144-1.827v-11.689c1.299.649,2.772,1.205,4.425,1.664,1.649.461,3.313.799,4.992,1.015,1.677.217,3.111.325,4.302.325,1.569,0,2.813-.041,3.734-.122.92-.081,1.38-.446,1.38-1.096,0-.54-.42-.975-1.258-1.299-.84-.325-1.936-.662-3.288-1.015-1.354-.352-2.841-.798-4.465-1.34-3.519-1.299-6.102-2.772-7.752-4.424-1.651-1.65-2.476-4.045-2.476-7.185,0-4.004,1.609-7.062,4.83-9.173,3.219-2.111,8.211-3.166,14.977-3.166,1.677,0,3.463.095,5.358.284,1.894.19,3.693.42,5.397.69,1.705.271,3.071.596,4.1.974v11.527c-1.678-.757-3.49-1.312-5.438-1.664-1.948-.352-3.708-.528-5.276-.528-1.408,0-2.788.055-4.141.163-1.354.108-2.029.487-2.029,1.137,0,.703.798,1.217,2.395,1.542,1.596.324,3.559.866,5.886,1.623,2.868.812,5.101,1.733,6.697,2.761,1.596,1.028,2.72,2.272,3.369,3.734.649,1.461.974,3.247.974,5.357,0,3.896-1.664,6.954-4.992,9.173-3.328,2.22-8.239,3.328-14.734,3.328Z"/>
    <path class="st3" d="M693.293,87.746c-7.902,0-13.76-1.69-17.575-5.073-3.815-3.382-5.723-8.374-5.723-14.978s1.92-11.594,5.763-14.977c3.843-3.382,9.688-5.074,17.535-5.074,7.9,0,13.786,1.692,17.656,5.074,3.868,3.383,5.804,8.375,5.804,14.977s-1.922,11.596-5.764,14.978c-3.843,3.383-9.741,5.073-17.696,5.073ZM693.293,75.164c1.948,0,3.381-.568,4.302-1.705.92-1.137,1.38-3.057,1.38-5.764s-.46-4.627-1.38-5.764c-.921-1.137-2.354-1.704-4.302-1.704-1.896,0-3.288.567-4.181,1.704-.894,1.137-1.34,3.059-1.34,5.764s.446,4.627,1.34,5.764c.893,1.137,2.285,1.705,4.181,1.705Z"/>
    <path class="st3" d="M721.623,86.935v-38.478h16.966l.406,2.679c1.461-.865,3.382-1.65,5.764-2.354,2.381-.703,4.816-1.082,7.306-1.137v12.907c-1.354.055-2.854.19-4.505.406-1.651.217-3.221.474-4.709.771-1.488.299-2.747.664-3.774,1.097v24.109h-17.453Z"/>
  </g>
  <g>
    <g>
      <g>
        <rect class="st2" x="189.592" y="116.532" width="4.208" height="4.208"/>
        <rect class="st2" x="193.8" y="116.532" width="4.209" height="4.208"/>
        <rect class="st2" x="193.8" y="120.74" width="4.209" height="4.208"/>
        <rect class="st2" x="198.009" y="120.74" width="4.208" height="4.208"/>
        <rect class="st2" x="198.009" y="124.949" width="4.208" height="4.208"/>
        <rect class="st2" x="202.217" y="124.949" width="4.208" height="4.208"/>
        <rect class="st2" x="202.217" y="129.157" width="4.208" height="4.208"/>
        <rect class="st2" x="206.426" y="129.157" width="4.208" height="4.208"/>
        <rect class="st2" x="206.426" y="133.365" width="4.208" height="4.208"/>
        <rect class="st2" x="210.634" y="133.365" width="4.208" height="4.208"/>
        <rect class="st2" x="214.842" y="137.573" width="4.208" height="4.208"/>
        <rect class="st2" x="210.634" y="137.573" width="4.208" height="4.208"/>
        <rect class="st2" x="210.634" y="141.782" width="4.208" height="4.209"/>
        <rect class="st2" x="206.426" y="141.782" width="4.208" height="4.209"/>
        <rect class="st2" x="206.426" y="145.991" width="4.208" height="4.208"/>
        <rect class="st2" x="202.217" y="145.991" width="4.208" height="4.208"/>
        <rect class="st2" x="202.217" y="150.199" width="4.208" height="4.208"/>
        <rect class="st2" x="198.009" y="150.199" width="4.208" height="4.208"/>
        <rect class="st2" x="189.592" y="158.616" width="4.208" height="4.208"/>
        <rect class="st2" x="193.8" y="158.616" width="4.209" height="4.208"/>
        <rect class="st2" x="193.8" y="154.407" width="4.209" height="4.208"/>
        <rect class="st2" x="198.009" y="154.407" width="4.208" height="4.208"/>
      </g>
      <g>
        <rect class="st3" x="189.592" y="154.407" width="4.208" height="4.208"/>
        <rect class="st3" x="185.383" y="162.824" width="4.208" height="4.208"/>
        <rect class="st3" x="189.592" y="162.824" width="4.208" height="4.208"/>
        <rect class="st3" x="193.8" y="162.824" width="4.209" height="4.208"/>
        <rect class="st3" x="185.383" y="158.616" width="4.208" height="4.208"/>
        <rect class="st3" x="198.009" y="158.616" width="4.208" height="4.208"/>
        <rect class="st3" x="202.217" y="154.407" width="4.208" height="4.208"/>
        <rect class="st3" x="193.8" y="150.199" width="4.209" height="4.208"/>
        <rect class="st3" x="206.426" y="150.199" width="4.208" height="4.208"/>
        <rect class="st3" x="198.009" y="145.991" width="4.208" height="4.208"/>
        <rect class="st3" x="210.634" y="145.991" width="4.208" height="4.208"/>
        <rect class="st3" x="202.217" y="141.782" width="4.208" height="4.209"/>
        <rect class="st3" x="214.842" y="141.782" width="4.208" height="4.209"/>
        <rect class="st3" x="206.426" y="137.573" width="4.208" height="4.208"/>
        <rect class="st3" x="219.05" y="137.573" width="4.208" height="4.208"/>
        <rect class="st3" x="202.217" y="133.365" width="4.208" height="4.208"/>
        <rect class="st3" x="214.842" y="133.365" width="4.208" height="4.208"/>
        <rect class="st3" x="198.009" y="129.157" width="4.208" height="4.208"/>
        <rect class="st3" x="210.634" y="129.157" width="4.208" height="4.208"/>
        <rect class="st3" x="193.8" y="124.949" width="4.209" height="4.208"/>
        <rect class="st3" x="206.426" y="124.949" width="4.208" height="4.208"/>
        <rect class="st3" x="189.592" y="120.74" width="4.208" height="4.208"/>
        <rect class="st3" x="202.217" y="120.74" width="4.208" height="4.208"/>
        <rect class="st3" x="185.383" y="116.532" width="4.208" height="4.208"/>
        <rect class="st3" x="198.009" y="116.532" width="4.208" height="4.208"/>
        <rect class="st3" x="185.383" y="112.323" width="4.208" height="4.209"/>
        <rect class="st3" x="189.592" y="112.323" width="4.208" height="4.209"/>
        <rect class="st3" x="193.8" y="112.323" width="4.209" height="4.209"/>
      </g>
    </g>
    <g>
      <g>
        <rect class="st2" x="158.749" y="116.532" width="4.208" height="4.208"/>
        <rect class="st2" x="162.958" y="116.532" width="4.209" height="4.208"/>
        <rect class="st2" x="162.958" y="120.74" width="4.209" height="4.208"/>
        <rect class="st2" x="167.167" y="120.74" width="4.208" height="4.208"/>
        <rect class="st2" x="167.167" y="124.949" width="4.208" height="4.208"/>
        <rect class="st2" x="171.375" y="124.949" width="4.208" height="4.208"/>
        <rect class="st2" x="171.375" y="129.157" width="4.208" height="4.208"/>
        <rect class="st2" x="175.584" y="129.157" width="4.208" height="4.208"/>
        <rect class="st2" x="175.584" y="133.365" width="4.208" height="4.208"/>
        <rect class="st2" x="179.792" y="133.365" width="4.208" height="4.208"/>
        <rect class="st2" x="184" y="137.573" width="4.208" height="4.208"/>
        <rect class="st2" x="179.792" y="137.573" width="4.208" height="4.208"/>
        <rect class="st2" x="179.792" y="141.782" width="4.208" height="4.209"/>
        <rect class="st2" x="175.584" y="141.782" width="4.208" height="4.209"/>
        <rect class="st2" x="175.584" y="145.991" width="4.208" height="4.208"/>
        <rect class="st2" x="171.375" y="145.991" width="4.208" height="4.208"/>
        <rect class="st2" x="171.375" y="150.199" width="4.208" height="4.208"/>
        <rect class="st2" x="167.167" y="150.199" width="4.208" height="4.208"/>
        <rect class="st2" x="158.749" y="158.616" width="4.208" height="4.208"/>
        <rect class="st2" x="162.958" y="158.616" width="4.209" height="4.208"/>
        <rect class="st2" x="162.958" y="154.407" width="4.209" height="4.208"/>
        <rect class="st2" x="167.167" y="154.407" width="4.208" height="4.208"/>
      </g>
      <g>
        <rect class="st3" x="158.749" y="154.407" width="4.208" height="4.208"/>
        <rect class="st3" x="154.541" y="162.824" width="4.208" height="4.208"/>
        <rect class="st3" x="158.749" y="162.824" width="4.208" height="4.208"/>
        <rect class="st3" x="162.958" y="162.824" width="4.209" height="4.208"/>
        <rect class="st3" x="154.541" y="158.616" width="4.208" height="4.208"/>
        <rect class="st3" x="167.167" y="158.616" width="4.208" height="4.208"/>
        <rect class="st3" x="171.375" y="154.407" width="4.208" height="4.208"/>
        <rect class="st3" x="162.958" y="150.199" width="4.209" height="4.208"/>
        <rect class="st3" x="175.584" y="150.199" width="4.208" height="4.208"/>
        <rect class="st3" x="167.167" y="145.991" width="4.208" height="4.208"/>
        <rect class="st3" x="179.792" y="145.991" width="4.208" height="4.208"/>
        <rect class="st3" x="171.375" y="141.782" width="4.208" height="4.209"/>
        <rect class="st3" x="184" y="141.782" width="4.208" height="4.209"/>
        <rect class="st3" x="175.584" y="137.573" width="4.208" height="4.208"/>
        <rect class="st3" x="188.208" y="137.573" width="4.208" height="4.208"/>
        <rect class="st3" x="171.375" y="133.365" width="4.208" height="4.208"/>
        <rect class="st3" x="184" y="133.365" width="4.208" height="4.208"/>
        <rect class="st3" x="167.167" y="129.157" width="4.208" height="4.208"/>
        <rect class="st3" x="179.792" y="129.157" width="4.208" height="4.208"/>
        <rect class="st3" x="162.958" y="124.949" width="4.209" height="4.208"/>
        <rect class="st3" x="175.584" y="124.949" width="4.208" height="4.208"/>
        <rect class="st3" x="158.749" y="120.74" width="4.208" height="4.208"/>
        <rect class="st3" x="171.375" y="120.74" width="4.208" height="4.208"/>
        <rect class="st3" x="154.541" y="116.532" width="4.208" height="4.208"/>
        <rect class="st3" x="167.167" y="116.532" width="4.208" height="4.208"/>
        <rect class="st3" x="154.541" y="112.323" width="4.208" height="4.209"/>
        <rect class="st3" x="158.749" y="112.323" width="4.208" height="4.209"/>
        <rect class="st3" x="162.958" y="112.323" width="4.209" height="4.209"/>
      </g>
    </g>
    <g>
      <g>
        <rect class="st2" x="127.907" y="116.532" width="4.208" height="4.208"/>
        <rect class="st2" x="132.116" y="116.532" width="4.209" height="4.208"/>
        <rect class="st2" x="132.116" y="120.74" width="4.209" height="4.208"/>
        <rect class="st2" x="136.325" y="120.74" width="4.208" height="4.208"/>
        <rect class="st2" x="136.325" y="124.949" width="4.208" height="4.208"/>
        <rect class="st2" x="140.533" y="124.949" width="4.208" height="4.208"/>
        <rect class="st2" x="140.533" y="129.157" width="4.208" height="4.208"/>
        <rect class="st2" x="144.741" y="129.157" width="4.208" height="4.208"/>
        <rect class="st2" x="144.741" y="133.365" width="4.208" height="4.208"/>
        <rect class="st2" x="148.95" y="133.365" width="4.208" height="4.208"/>
        <rect class="st2" x="153.158" y="137.573" width="4.208" height="4.208"/>
        <rect class="st2" x="148.95" y="137.573" width="4.208" height="4.208"/>
        <rect class="st2" x="148.95" y="141.782" width="4.208" height="4.209"/>
        <rect class="st2" x="144.741" y="141.782" width="4.208" height="4.209"/>
        <rect class="st2" x="144.741" y="145.991" width="4.208" height="4.208"/>
        <rect class="st2" x="140.533" y="145.991" width="4.208" height="4.208"/>
        <rect class="st2" x="140.533" y="150.199" width="4.208" height="4.208"/>
        <rect class="st2" x="136.325" y="150.199" width="4.208" height="4.208"/>
        <rect class="st2" x="127.907" y="158.616" width="4.208" height="4.208"/>
        <rect class="st2" x="132.116" y="158.616" width="4.209" height="4.208"/>
        <rect class="st2" x="132.116" y="154.407" width="4.209" height="4.208"/>
        <rect class="st2" x="136.325" y="154.407" width="4.208" height="4.208"/>
      </g>
      <g>
        <rect class="st3" x="127.907" y="154.407" width="4.208" height="4.208"/>
        <rect class="st3" x="123.699" y="162.824" width="4.208" height="4.208"/>
        <rect class="st3" x="127.907" y="162.824" width="4.208" height="4.208"/>
        <rect class="st3" x="132.116" y="162.824" width="4.209" height="4.208"/>
        <rect class="st3" x="123.699" y="158.616" width="4.208" height="4.208"/>
        <rect class="st3" x="136.325" y="158.616" width="4.208" height="4.208"/>
        <rect class="st3" x="140.533" y="154.407" width="4.208" height="4.208"/>
        <rect class="st3" x="132.116" y="150.199" width="4.209" height="4.208"/>
        <rect class="st3" x="144.741" y="150.199" width="4.208" height="4.208"/>
        <rect class="st3" x="136.325" y="145.991" width="4.208" height="4.208"/>
        <rect class="st3" x="148.95" y="145.991" width="4.208" height="4.208"/>
        <rect class="st3" x="140.533" y="141.782" width="4.208" height="4.209"/>
        <rect class="st3" x="153.158" y="141.782" width="4.208" height="4.209"/>
        <rect class="st3" x="144.741" y="137.573" width="4.208" height="4.208"/>
        <rect class="st3" x="157.366" y="137.573" width="4.208" height="4.208"/>
        <rect class="st3" x="140.533" y="133.365" width="4.208" height="4.208"/>
        <rect class="st3" x="153.158" y="133.365" width="4.208" height="4.208"/>
        <rect class="st3" x="136.325" y="129.157" width="4.208" height="4.208"/>
        <rect class="st3" x="148.95" y="129.157" width="4.208" height="4.208"/>
        <rect class="st3" x="132.116" y="124.949" width="4.209" height="4.208"/>
        <rect class="st3" x="144.741" y="124.949" width="4.208" height="4.208"/>
        <rect class="st3" x="127.907" y="120.74" width="4.208" height="4.208"/>
        <rect class="st3" x="140.533" y="120.74" width="4.208" height="4.208"/>
        <rect class="st3" x="123.699" y="116.532" width="4.208" height="4.208"/>
        <rect class="st3" x="136.325" y="116.532" width="4.208" height="4.208"/>
        <rect class="st3" x="123.699" y="112.323" width="4.208" height="4.209"/>
        <rect class="st3" x="127.907" y="112.323" width="4.208" height="4.209"/>
        <rect class="st3" x="132.116" y="112.323" width="4.209" height="4.209"/>
      </g>
    </g>
  </g>
  <g>
    <g>
      <g>
        <rect class="st2" x="620.817" y="158.615" width="4.208" height="4.208"/>
        <rect class="st2" x="616.608" y="158.615" width="4.209" height="4.208"/>
        <rect class="st2" x="616.608" y="154.406" width="4.209" height="4.208"/>
        <rect class="st2" x="612.399" y="154.406" width="4.208" height="4.208"/>
        <rect class="st2" x="612.399" y="150.198" width="4.208" height="4.208"/>
        <rect class="st2" x="608.191" y="150.198" width="4.208" height="4.208"/>
        <rect class="st2" x="608.191" y="145.99" width="4.208" height="4.208"/>
        <rect class="st2" x="603.983" y="145.99" width="4.208" height="4.208"/>
        <rect class="st2" x="603.983" y="141.782" width="4.208" height="4.208"/>
        <rect class="st2" x="599.775" y="141.782" width="4.208" height="4.208"/>
        <rect class="st2" x="595.566" y="137.573" width="4.208" height="4.208"/>
        <rect class="st2" x="599.775" y="137.573" width="4.208" height="4.208"/>
        <rect class="st2" x="599.775" y="133.364" width="4.208" height="4.209"/>
        <rect class="st2" x="603.983" y="133.364" width="4.208" height="4.209"/>
        <rect class="st2" x="603.983" y="129.156" width="4.208" height="4.208"/>
        <rect class="st2" x="608.191" y="129.156" width="4.208" height="4.208"/>
        <rect class="st2" x="608.191" y="124.947" width="4.208" height="4.208"/>
        <rect class="st2" x="612.399" y="124.947" width="4.208" height="4.208"/>
        <rect class="st2" x="620.817" y="116.531" width="4.208" height="4.208"/>
        <rect class="st2" x="616.608" y="116.531" width="4.209" height="4.208"/>
        <rect class="st2" x="616.608" y="120.739" width="4.209" height="4.208"/>
        <rect class="st2" x="612.399" y="120.739" width="4.208" height="4.208"/>
      </g>
      <g>
        <rect class="st3" x="620.817" y="120.739" width="4.208" height="4.208"/>
        <rect class="st3" x="625.025" y="112.323" width="4.208" height="4.208"/>
        <rect class="st3" x="620.817" y="112.323" width="4.208" height="4.208"/>
        <rect class="st3" x="616.608" y="112.323" width="4.209" height="4.208"/>
        <rect class="st3" x="625.025" y="116.531" width="4.208" height="4.208"/>
        <rect class="st3" x="612.399" y="116.531" width="4.208" height="4.208"/>
        <rect class="st3" x="608.191" y="120.739" width="4.208" height="4.208"/>
        <rect class="st3" x="616.608" y="124.947" width="4.209" height="4.208"/>
        <rect class="st3" x="603.983" y="124.947" width="4.208" height="4.208"/>
        <rect class="st3" x="612.399" y="129.156" width="4.208" height="4.208"/>
        <rect class="st3" x="599.775" y="129.156" width="4.208" height="4.208"/>
        <rect class="st3" x="608.191" y="133.364" width="4.208" height="4.209"/>
        <rect class="st3" x="595.566" y="133.364" width="4.208" height="4.209"/>
        <rect class="st3" x="603.983" y="137.573" width="4.208" height="4.208"/>
        <rect class="st3" x="591.358" y="137.573" width="4.208" height="4.208"/>
        <rect class="st3" x="608.191" y="141.782" width="4.208" height="4.208"/>
        <rect class="st3" x="595.566" y="141.782" width="4.208" height="4.208"/>
        <rect class="st3" x="612.399" y="145.99" width="4.208" height="4.208"/>
        <rect class="st3" x="599.775" y="145.99" width="4.208" height="4.208"/>
        <rect class="st3" x="616.608" y="150.198" width="4.209" height="4.208"/>
        <rect class="st3" x="603.983" y="150.198" width="4.208" height="4.208"/>
        <rect class="st3" x="620.817" y="154.406" width="4.208" height="4.208"/>
        <rect class="st3" x="608.191" y="154.406" width="4.208" height="4.208"/>
        <rect class="st3" x="625.025" y="158.615" width="4.208" height="4.208"/>
        <rect class="st3" x="612.399" y="158.615" width="4.208" height="4.208"/>
        <rect class="st3" x="625.025" y="162.823" width="4.208" height="4.209"/>
        <rect class="st3" x="620.817" y="162.823" width="4.208" height="4.209"/>
        <rect class="st3" x="616.608" y="162.823" width="4.209" height="4.209"/>
      </g>
    </g>
    <g>
      <g>
        <rect class="st2" x="651.659" y="158.615" width="4.208" height="4.208"/>
        <rect class="st2" x="647.45" y="158.615" width="4.209" height="4.208"/>
        <rect class="st2" x="647.45" y="154.406" width="4.209" height="4.208"/>
        <rect class="st2" x="643.241" y="154.406" width="4.208" height="4.208"/>
        <rect class="st2" x="643.241" y="150.198" width="4.208" height="4.208"/>
        <rect class="st2" x="639.033" y="150.198" width="4.208" height="4.208"/>
        <rect class="st2" x="639.033" y="145.99" width="4.208" height="4.208"/>
        <rect class="st2" x="634.825" y="145.99" width="4.208" height="4.208"/>
        <rect class="st2" x="634.825" y="141.782" width="4.208" height="4.208"/>
        <rect class="st2" x="630.617" y="141.782" width="4.208" height="4.208"/>
        <rect class="st2" x="626.408" y="137.573" width="4.208" height="4.208"/>
        <rect class="st2" x="630.617" y="137.573" width="4.208" height="4.208"/>
        <rect class="st2" x="630.617" y="133.364" width="4.208" height="4.209"/>
        <rect class="st2" x="634.825" y="133.364" width="4.208" height="4.209"/>
        <rect class="st2" x="634.825" y="129.156" width="4.208" height="4.208"/>
        <rect class="st2" x="639.033" y="129.156" width="4.208" height="4.208"/>
        <rect class="st2" x="639.033" y="124.947" width="4.208" height="4.208"/>
        <rect class="st2" x="643.241" y="124.947" width="4.208" height="4.208"/>
        <rect class="st2" x="651.659" y="116.531" width="4.208" height="4.208"/>
        <rect class="st2" x="647.45" y="116.531" width="4.209" height="4.208"/>
        <rect class="st2" x="647.45" y="120.739" width="4.209" height="4.208"/>
        <rect class="st2" x="643.241" y="120.739" width="4.208" height="4.208"/>
      </g>
      <g>
        <rect class="st3" x="651.659" y="120.739" width="4.208" height="4.208"/>
        <rect class="st3" x="655.867" y="112.323" width="4.208" height="4.208"/>
        <rect class="st3" x="651.659" y="112.323" width="4.208" height="4.208"/>
        <rect class="st3" x="647.45" y="112.323" width="4.209" height="4.208"/>
        <rect class="st3" x="655.867" y="116.531" width="4.208" height="4.208"/>
        <rect class="st3" x="643.241" y="116.531" width="4.208" height="4.208"/>
        <rect class="st3" x="639.033" y="120.739" width="4.208" height="4.208"/>
        <rect class="st3" x="647.45" y="124.947" width="4.209" height="4.208"/>
        <rect class="st3" x="634.825" y="124.947" width="4.208" height="4.208"/>
        <rect class="st3" x="643.241" y="129.156" width="4.208" height="4.208"/>
        <rect class="st3" x="630.617" y="129.156" width="4.208" height="4.208"/>
        <rect class="st3" x="639.033" y="133.364" width="4.208" height="4.209"/>
        <rect class="st3" x="626.408" y="133.364" width="4.208" height="4.209"/>
        <rect class="st3" x="634.825" y="137.573" width="4.208" height="4.208"/>
        <rect class="st3" x="622.2" y="137.573" width="4.208" height="4.208"/>
        <rect class="st3" x="639.033" y="141.782" width="4.208" height="4.208"/>
        <rect class="st3" x="626.408" y="141.782" width="4.208" height="4.208"/>
        <rect class="st3" x="643.241" y="145.99" width="4.208" height="4.208"/>
        <rect class="st3" x="630.617" y="145.99" width="4.208" height="4.208"/>
        <rect class="st3" x="647.45" y="150.198" width="4.209" height="4.208"/>
        <rect class="st3" x="634.825" y="150.198" width="4.208" height="4.208"/>
        <rect class="st3" x="651.659" y="154.406" width="4.208" height="4.208"/>
        <rect class="st3" x="639.033" y="154.406" width="4.208" height="4.208"/>
        <rect class="st3" x="655.867" y="158.615" width="4.208" height="4.208"/>
        <rect class="st3" x="643.241" y="158.615" width="4.208" height="4.208"/>
        <rect class="st3" x="655.867" y="162.823" width="4.208" height="4.209"/>
        <rect class="st3" x="651.659" y="162.823" width="4.208" height="4.209"/>
        <rect class="st3" x="647.45" y="162.823" width="4.209" height="4.209"/>
      </g>
    </g>
    <g>
      <g>
        <rect class="st2" x="682.501" y="158.615" width="4.208" height="4.208"/>
        <rect class="st2" x="678.292" y="158.615" width="4.209" height="4.208"/>
        <rect class="st2" x="678.292" y="154.406" width="4.209" height="4.208"/>
        <rect class="st2" x="674.084" y="154.406" width="4.208" height="4.208"/>
        <rect class="st2" x="674.084" y="150.198" width="4.208" height="4.208"/>
        <rect class="st2" x="669.875" y="150.198" width="4.208" height="4.208"/>
        <rect class="st2" x="669.875" y="145.99" width="4.208" height="4.208"/>
        <rect class="st2" x="665.667" y="145.99" width="4.208" height="4.208"/>
        <rect class="st2" x="665.667" y="141.782" width="4.208" height="4.208"/>
        <rect class="st2" x="661.459" y="141.782" width="4.208" height="4.208"/>
        <rect class="st2" x="657.251" y="137.573" width="4.208" height="4.208"/>
        <rect class="st2" x="661.459" y="137.573" width="4.208" height="4.208"/>
        <rect class="st2" x="661.459" y="133.364" width="4.208" height="4.209"/>
        <rect class="st2" x="665.667" y="133.364" width="4.208" height="4.209"/>
        <rect class="st2" x="665.667" y="129.156" width="4.208" height="4.208"/>
        <rect class="st2" x="669.875" y="129.156" width="4.208" height="4.208"/>
        <rect class="st2" x="669.875" y="124.947" width="4.208" height="4.208"/>
        <rect class="st2" x="674.084" y="124.947" width="4.208" height="4.208"/>
        <rect class="st2" x="682.501" y="116.531" width="4.208" height="4.208"/>
        <rect class="st2" x="678.292" y="116.531" width="4.209" height="4.208"/>
        <rect class="st2" x="678.292" y="120.739" width="4.209" height="4.208"/>
        <rect class="st2" x="674.084" y="120.739" width="4.208" height="4.208"/>
      </g>
      <g>
        <rect class="st3" x="682.501" y="120.739" width="4.208" height="4.208"/>
        <rect class="st3" x="686.709" y="112.323" width="4.208" height="4.208"/>
        <rect class="st3" x="682.501" y="112.323" width="4.208" height="4.208"/>
        <rect class="st3" x="678.292" y="112.323" width="4.209" height="4.208"/>
        <rect class="st3" x="686.709" y="116.531" width="4.208" height="4.208"/>
        <rect class="st3" x="674.084" y="116.531" width="4.208" height="4.208"/>
        <rect class="st3" x="669.875" y="120.739" width="4.208" height="4.208"/>
        <rect class="st3" x="678.292" y="124.947" width="4.209" height="4.208"/>
        <rect class="st3" x="665.667" y="124.947" width="4.208" height="4.208"/>
        <rect class="st3" x="674.084" y="129.156" width="4.208" height="4.208"/>
        <rect class="st3" x="661.459" y="129.156" width="4.208" height="4.208"/>
        <rect class="st3" x="669.875" y="133.364" width="4.208" height="4.209"/>
        <rect class="st3" x="657.251" y="133.364" width="4.208" height="4.209"/>
        <rect class="st3" x="665.667" y="137.573" width="4.208" height="4.208"/>
        <rect class="st3" x="653.042" y="137.573" width="4.208" height="4.208"/>
        <rect class="st3" x="669.875" y="141.782" width="4.208" height="4.208"/>
        <rect class="st3" x="657.251" y="141.782" width="4.208" height="4.208"/>
        <rect class="st3" x="674.084" y="145.99" width="4.208" height="4.208"/>
        <rect class="st3" x="661.459" y="145.99" width="4.208" height="4.208"/>
        <rect class="st3" x="678.292" y="150.198" width="4.209" height="4.208"/>
        <rect class="st3" x="665.667" y="150.198" width="4.208" height="4.208"/>
        <rect class="st3" x="682.501" y="154.406" width="4.208" height="4.208"/>
        <rect class="st3" x="669.875" y="154.406" width="4.208" height="4.208"/>
        <rect class="st3" x="686.709" y="158.615" width="4.208" height="4.208"/>
        <rect class="st3" x="674.084" y="158.615" width="4.208" height="4.208"/>
        <rect class="st3" x="686.709" y="162.823" width="4.208" height="4.209"/>
        <rect class="st3" x="682.501" y="162.823" width="4.208" height="4.209"/>
        <rect class="st3" x="678.292" y="162.823" width="4.209" height="4.209"/>
      </g>
    </g>
  </g>
</svg>