
<?xml version="1.0" encoding="UTF-8"?>
<svg id="Ebene_1" xmlns="http://www.w3.org/2000/svg" version="1.1" viewBox="0 0 841.975 262.588">
  <!-- Generator: Adobe Illustrator 29.7.1, SVG Export Plug-In . SVG Version: 2.1.1 Build 8)  -->
  <defs>
    <style>
      .st0 {
        fill: #00d80a;
      }

      .st1 {
        fill: #271d34;
      }

      .st2 {
        fill: none;
        stroke: #fff;
        stroke-width: 4px;
      }

      .st2, .st3 {
        stroke-miterlimit: 10;
      }

      .st4 {
        isolation: isolate;
      }

      .st5, .st3 {
        fill: #fff;
      }

      .st3 {
        stroke: #271d34;
        stroke-width: 2px;
      }

      .st6 {
        fill: #271d34;
      }
    </style>
  </defs>
  <line class="st2" x1="1324.797" y1="154.165" x2="1262.12" y2="154.165"/>
  <g>
    <g class="st4">
      <g class="st4">
        <path class="st6" d="M261.313,118.597v-44.172h-7.668v-7.021h7.668v-7.451c0-4.896,1.35-8.766,4.05-11.61,2.7-2.844,6.677-4.266,11.934-4.266,1.872,0,3.581.145,5.13.432,1.547.288,2.97.685,4.266,1.188v6.696c-2.232-.791-4.609-1.188-7.128-1.188-3.672,0-6.156.666-7.452,1.998-1.296,1.333-1.944,3.582-1.944,6.75v7.451h13.824l-.432,7.021h-13.392v44.172h-8.856Z"/>
        <path class="st6" d="M293.497,118.597v-51.192h7.992l.648,6.48c2.519-1.655,5.489-3.168,8.91-4.536,3.419-1.367,6.786-2.376,10.098-3.024v6.912c-2.017.433-4.212,1.026-6.588,1.782s-4.644,1.604-6.804,2.538c-2.16.937-3.96,1.908-5.4,2.916v38.124h-8.856Z"/>
        <path class="st6" d="M353.869,119.677c-9.145,0-15.983-2.195-20.52-6.588-4.536-4.391-6.805-11.159-6.805-20.304,0-8.208,1.961-14.67,5.887-19.387,3.923-4.715,10.133-7.074,18.63-7.074,5.039,0,9.196.919,12.474,2.755,3.275,1.836,5.724,4.356,7.344,7.56,1.62,3.204,2.431,6.822,2.431,10.854v9.611h-37.908c.287,3.889,1.134,6.949,2.538,9.181,1.404,2.232,3.526,3.834,6.372,4.806,2.843.972,6.604,1.458,11.286,1.458,5.255,0,10.079-.899,14.472-2.7v6.912c-2.232.937-4.735,1.657-7.506,2.16-2.772.503-5.67.756-8.694.756ZM335.401,90.733h30.023v-4.212c0-4.175-1.098-7.397-3.294-9.666-2.196-2.268-5.814-3.401-10.854-3.401-6.121,0-10.297,1.44-12.528,4.319-2.232,2.881-3.348,7.201-3.348,12.96Z"/>
        <path class="st6" d="M411.433,119.677c-9.145,0-15.984-2.195-20.521-6.588-4.536-4.391-6.804-11.159-6.804-20.304,0-8.208,1.961-14.67,5.886-19.387,3.924-4.715,10.134-7.074,18.63-7.074,5.039,0,9.197.919,12.475,2.755,3.275,1.836,5.724,4.356,7.344,7.56,1.62,3.204,2.43,6.822,2.43,10.854v9.611h-37.908c.287,3.889,1.135,6.949,2.538,9.181,1.404,2.232,3.527,3.834,6.372,4.806,2.844.972,6.605,1.458,11.286,1.458,5.255,0,10.079-.899,14.472-2.7v6.912c-2.232.937-4.734,1.657-7.506,2.16-2.772.503-5.67.756-8.693.756ZM392.964,90.733h30.024v-4.212c0-4.175-1.099-7.397-3.294-9.666-2.197-2.268-5.815-3.401-10.854-3.401-6.12,0-10.297,1.44-12.527,4.319-2.232,2.881-3.349,7.201-3.349,12.96Z"/>
        <path class="st6" d="M474.395,118.597v-44.172h-7.884l.864-7.021h15.876v51.192h-8.856ZM473.53,55.418v-8.101h9.828v8.101h-9.828Z"/>
        <path class="st6" d="M498.477,118.597v-51.192h7.992l.54,5.832c2.735-2.159,5.633-3.851,8.694-5.075,3.06-1.224,6.354-1.837,9.882-1.837,3.815,0,6.785.613,8.91,1.837,2.123,1.225,3.688,2.953,4.698,5.184,2.446-2.015,5.255-3.688,8.424-5.022,3.167-1.331,6.947-1.998,11.34-1.998,5.832,0,10.169,1.495,13.014,4.482,2.844,2.988,4.267,7.578,4.267,13.771v34.02h-8.748v-33.156c0-4.536-.955-7.668-2.862-9.396-1.908-1.729-4.986-2.592-9.234-2.592-2.808,0-5.49.469-8.046,1.403-2.557.937-4.734,2.376-6.533,4.32.432,1.801.647,3.888.647,6.264v33.156h-8.316v-32.94c0-4.319-.72-7.433-2.159-9.342-1.441-1.906-4.285-2.861-8.532-2.861-2.881,0-5.635.631-8.262,1.89-2.63,1.261-4.951,2.826-6.967,4.698v38.556h-8.748Z"/>
        <path class="st6" d="M605.072,119.677c-3.239,0-6.229-.577-8.964-1.729-2.736-1.15-4.933-2.861-6.588-5.13-1.657-2.268-2.483-5.13-2.483-8.586,0-4.679,1.547-8.513,4.644-11.502,3.095-2.986,8.136-4.481,15.12-4.481h17.82v-3.133c0-2.808-.378-5.038-1.135-6.695-.756-1.655-2.178-2.844-4.266-3.564-2.089-.719-5.148-1.08-9.18-1.08-3.097,0-6.085.254-8.964.756-2.881.505-5.581,1.188-8.101,2.053v-7.345c2.304-.863,5.022-1.565,8.154-2.105s6.497-.811,10.098-.811c7.271,0,12.726,1.477,16.362,4.429,3.635,2.953,5.454,7.74,5.454,14.363v33.48h-7.452l-.648-5.832c-2.232,2.305-4.933,4.033-8.1,5.184-3.169,1.151-7.093,1.729-11.772,1.729ZM607.341,112.441c3.743,0,7.056-.665,9.936-1.998,2.879-1.331,5.328-3.148,7.345-5.454v-9.936h-17.604c-4.033,0-6.912.756-8.64,2.268-1.729,1.513-2.592,3.817-2.592,6.912s1.042,5.238,3.132,6.426c2.087,1.188,4.896,1.782,8.424,1.782Z"/>
        <path class="st6" d="M667.495,137.605c-3.816,0-7.543-.216-11.178-.647-3.637-.433-6.75-1.117-9.342-2.053v-7.344c2.879.935,6.119,1.655,9.72,2.16,3.6.503,7.056.756,10.368.756,5.4,0,9.358-.324,11.88-.972,2.52-.648,3.78-2.306,3.78-4.968,0-1.874-.667-3.205-1.998-3.996-1.333-.794-3.69-1.188-7.074-1.188h-13.607c-9.434,0-14.148-3.167-14.148-9.504,0-2.087.665-4.085,1.998-5.994,1.331-1.906,3.329-3.257,5.994-4.05-2.881-1.439-5.005-3.438-6.372-5.994-1.369-2.555-2.052-5.598-2.052-9.126,0-6.407,1.853-11.07,5.562-13.986,3.708-2.916,9.378-4.374,17.01-4.374,1.583,0,3.222.127,4.914.379,1.691.253,3.006.485,3.942.701h18.468l-.324,6.049h-9.288c1.656,1.368,2.844,3.007,3.564,4.913.719,1.909,1.08,4.015,1.08,6.318,0,5.688-1.657,10.098-4.968,13.23-3.312,3.132-8.389,4.697-15.229,4.697-1.152,0-2.179-.054-3.078-.162-.9-.107-1.962-.232-3.186-.378-2.232.073-4.32.702-6.265,1.891-1.943,1.188-2.915,2.719-2.915,4.59,0,1.225.485,2.124,1.458,2.7.972.577,2.754.863,5.346.863h14.147c5.111,0,9.035,1.026,11.772,3.078,2.735,2.053,4.104,5.058,4.104,9.019,0,5.039-2.089,8.532-6.264,10.476-4.177,1.944-10.116,2.916-17.82,2.916ZM668.035,95.918c5.111,0,8.641-.827,10.584-2.484,1.944-1.655,2.916-4.571,2.916-8.748s-1.025-7.199-3.078-9.072c-2.052-1.871-5.526-2.808-10.422-2.808-4.824,0-8.315.901-10.476,2.7-2.16,1.801-3.24,4.859-3.24,9.18,0,3.961,1.026,6.822,3.078,8.586,2.052,1.766,5.598,2.646,10.638,2.646Z"/>
        <path class="st6" d="M729.704,119.677c-9.145,0-15.983-2.195-20.52-6.588-4.536-4.391-6.804-11.159-6.804-20.304,0-8.208,1.961-14.67,5.886-19.387,3.923-4.715,10.134-7.074,18.63-7.074,5.039,0,9.197.919,12.474,2.755,3.275,1.836,5.725,4.356,7.345,7.56,1.619,3.204,2.43,6.822,2.43,10.854v9.611h-37.908c.287,3.889,1.134,6.949,2.538,9.181,1.404,2.232,3.527,3.834,6.372,4.806,2.844.972,6.604,1.458,11.286,1.458,5.255,0,10.079-.899,14.472-2.7v6.912c-2.232.937-4.735,1.657-7.506,2.16-2.772.503-5.67.756-8.694.756ZM711.236,90.733h30.024v-4.212c0-4.175-1.099-7.397-3.294-9.666-2.197-2.268-5.815-3.401-10.854-3.401-6.12,0-10.297,1.44-12.528,4.319-2.232,2.881-3.348,7.201-3.348,12.96Z"/>
      </g>
    </g>
    <g class="st4">
      <g class="st4">
        <path class="st0" d="M279.175,220.872c-5.473,0-10.135-1.009-13.986-3.024-3.853-2.015-6.553-5.003-8.1-8.964-1.549-3.959-1.711-8.855-.486-14.688,1.871-9,5.724-15.695,11.556-20.088,5.832-4.392,13.428-6.589,22.788-6.589,3.6,0,6.642.254,9.126.757,2.484.504,4.842,1.333,7.074,2.483l-2.269,10.477c-1.584-.864-3.51-1.548-5.777-2.053-2.269-.503-4.771-.756-7.506-.756-5.473,0-9.901,1.134-13.284,3.402-3.385,2.268-5.689,6.391-6.912,12.366-1.153,5.473-.847,9.469.918,11.987,1.763,2.521,5.921,3.78,12.474,3.78,2.519,0,5.039-.251,7.56-.756,2.52-.503,4.931-1.259,7.235-2.268l-2.268,10.8c-5.329,2.087-11.377,3.132-18.144,3.132Z"/>
        <path class="st0" d="M329.179,220.872c-9.146,0-15.553-2.322-19.225-6.966-3.672-4.645-4.608-11.214-2.808-19.71,1.799-8.495,5.327-15.066,10.584-19.71,5.255-4.645,12.852-6.967,22.788-6.967,9.288,0,15.768,2.322,19.439,6.967,3.672,4.644,4.607,11.215,2.809,19.71-1.801,8.496-5.292,15.065-10.477,19.71-5.184,4.644-12.889,6.966-23.111,6.966ZM331.878,208.452c4.68,0,8.244-1.062,10.692-3.187,2.447-2.122,4.247-5.813,5.4-11.069,1.079-5.255.935-8.945-.433-11.07-1.368-2.123-4.573-3.186-9.612-3.186-4.608,0-8.153,1.062-10.638,3.186-2.483,2.125-4.266,5.815-5.346,11.07-1.152,5.256-1.045,8.947.324,11.069,1.366,2.125,4.571,3.187,9.611,3.187Z"/>
        <path class="st0" d="M365.466,219.792l10.8-51.192h13.5l-.54,4.969c2.879-1.872,5.886-3.349,9.018-4.429s6.389-1.62,9.774-1.62c3.6,0,6.28.54,8.046,1.62,1.764,1.08,2.97,2.63,3.618,4.645,2.735-1.872,5.759-3.384,9.072-4.536,3.311-1.151,7.055-1.729,11.231-1.729,5.471,0,9.396,1.531,11.772,4.591,2.376,3.061,2.916,7.722,1.619,13.985l-7.128,33.696h-14.363l6.804-32.076c.719-3.383.594-5.813-.378-7.29-.972-1.475-3.224-2.214-6.75-2.214-4.32,0-8.245,1.549-11.772,4.645.071,1.225-.072,2.699-.432,4.428l-6.804,32.508h-13.608l6.804-32.076c.648-3.167.595-5.543-.161-7.128-.757-1.583-2.684-2.376-5.778-2.376-2.16,0-4.304.559-6.426,1.674-2.125,1.117-4.123,2.395-5.994,3.834l-7.561,36.072h-14.363Z"/>
        <path class="st0" d="M451.108,243.12l15.769-74.521h12.636l-.216,4.752c2.592-1.871,5.327-3.311,8.208-4.319,2.879-1.008,6.119-1.513,9.72-1.513,7.128,0,12.366,2.125,15.714,6.372,3.349,4.25,4.05,10.98,2.106,20.196-1.944,9.217-5.4,15.984-10.368,20.304-4.968,4.32-11.521,6.48-19.656,6.48-5.761,0-10.368-1.296-13.824-3.888l-5.508,26.136h-14.58ZM483.617,210.179c4.319,0,7.884-1.296,10.691-3.888,2.809-2.592,4.823-6.731,6.048-12.42,1.151-5.471,1.098-9.45-.162-11.934-1.26-2.484-4.374-3.727-9.342-3.727-4.465,0-8.604,1.549-12.42,4.645l-4.968,23.436c1.224,1.152,2.608,2.089,4.158,2.808,1.547.721,3.545,1.08,5.994,1.08Z"/>
        <path class="st0" d="M517.637,219.792l10.8-51.192h13.5l-.433,5.292c2.663-1.439,5.813-2.754,9.45-3.941,3.635-1.188,7.146-1.998,10.53-2.431l-2.268,11.017c-2.017.288-4.231.721-6.643,1.296-2.413.577-4.752,1.225-7.02,1.944-2.269.72-4.195,1.477-5.778,2.268l-7.56,35.748h-14.58Z"/>
        <path class="st0" d="M580.061,220.872c-5.545,0-10.278-.972-14.202-2.916-3.925-1.944-6.696-4.914-8.315-8.91-1.62-3.996-1.819-8.98-.595-14.958,1.151-5.471,2.952-10.188,5.4-14.147,2.447-3.959,5.813-7.021,10.098-9.181,4.283-2.16,9.666-3.24,16.146-3.24,7.919,0,13.554,2.071,16.901,6.211,3.349,4.141,4.302,9.558,2.862,16.254l-1.944,9.288h-37.044c-.072,4.104,1.026,6.911,3.294,8.424,2.269,1.512,6.534,2.268,12.799,2.268,2.735,0,5.578-.251,8.531-.756,2.952-.503,5.509-1.151,7.668-1.944l-2.159,10.368c-2.593,1.08-5.546,1.891-8.856,2.43-3.312.54-6.841.811-10.584.811ZM571.312,190.307h24.3l.54-2.808c.648-2.951.287-5.273-1.08-6.966-1.368-1.691-4.104-2.538-8.208-2.538-4.824,0-8.389.972-10.691,2.916-2.306,1.944-3.926,5.076-4.86,9.396Z"/>
        <path class="st0" d="M627.366,220.872c-3.817,0-7.382-.271-10.692-.811-3.312-.539-5.939-1.204-7.884-1.997l2.592-12.097c2.304,1.01,4.985,1.782,8.046,2.322,3.06.54,5.922.81,8.586.81,3.6,0,6.191-.216,7.776-.647,1.583-.433,2.52-1.404,2.808-2.916.359-1.729-.522-2.987-2.646-3.78-2.125-.791-5.238-1.907-9.342-3.348-4.393-1.583-7.614-3.546-9.666-5.886-2.053-2.339-2.611-5.598-1.675-9.774,1.08-4.896,3.564-8.657,7.452-11.286,3.889-2.627,10.007-3.942,18.36-3.942,3.167,0,6.119.235,8.855.702,2.735.47,5.004,1.026,6.805,1.674l-2.593,11.988c-1.728-.935-3.798-1.637-6.21-2.105-2.413-.468-4.697-.702-6.857-.702-3.097,0-5.6.216-7.506.647-1.909.433-3.043,1.369-3.402,2.809-.288,1.584.468,2.7,2.269,3.348,1.799.648,4.679,1.62,8.64,2.916,5.687,1.873,9.377,4.068,11.07,6.588,1.69,2.521,2.105,5.832,1.241,9.937-1.08,5.113-3.654,8.982-7.722,11.609-4.068,2.63-10.171,3.942-18.306,3.942Z"/>
        <path class="st0" d="M673.374,220.872c-3.817,0-7.382-.271-10.692-.811-3.312-.539-5.939-1.204-7.884-1.997l2.592-12.097c2.304,1.01,4.985,1.782,8.046,2.322,3.06.54,5.922.81,8.586.81,3.6,0,6.191-.216,7.776-.647,1.583-.433,2.52-1.404,2.808-2.916.359-1.729-.522-2.987-2.646-3.78-2.125-.791-5.238-1.907-9.342-3.348-4.393-1.583-7.614-3.546-9.666-5.886-2.053-2.339-2.611-5.598-1.675-9.774,1.08-4.896,3.564-8.657,7.452-11.286,3.889-2.627,10.007-3.942,18.36-3.942,3.167,0,6.119.235,8.855.702,2.735.47,5.004,1.026,6.805,1.674l-2.593,11.988c-1.728-.935-3.798-1.637-6.21-2.105-2.413-.468-4.697-.702-6.857-.702-3.097,0-5.6.216-7.506.647-1.909.433-3.043,1.369-3.402,2.809-.288,1.584.468,2.7,2.269,3.348,1.799.648,4.679,1.62,8.64,2.916,5.687,1.873,9.377,4.068,11.07,6.588,1.69,2.521,2.105,5.832,1.241,9.937-1.08,5.113-3.654,8.982-7.722,11.609-4.068,2.63-10.171,3.942-18.306,3.942Z"/>
        <path class="st0" d="M727.913,220.872c-9.146,0-15.553-2.322-19.225-6.966-3.672-4.645-4.608-11.214-2.808-19.71,1.799-8.495,5.327-15.066,10.584-19.71,5.255-4.645,12.852-6.967,22.788-6.967,9.288,0,15.768,2.322,19.439,6.967,3.672,4.644,4.607,11.215,2.809,19.71-1.801,8.496-5.292,15.065-10.477,19.71-5.184,4.644-12.889,6.966-23.111,6.966ZM730.612,208.452c4.68,0,8.244-1.062,10.692-3.187,2.447-2.122,4.247-5.813,5.4-11.069,1.079-5.255.935-8.945-.433-11.07-1.368-2.123-4.573-3.186-9.612-3.186-4.608,0-8.153,1.062-10.638,3.186-2.483,2.125-4.266,5.815-5.346,11.07-1.152,5.256-1.045,8.947.324,11.069,1.366,2.125,4.571,3.187,9.611,3.187Z"/>
        <path class="st0" d="M764.2,219.792l10.8-51.192h13.5l-.433,5.292c2.663-1.439,5.813-2.754,9.45-3.941,3.635-1.188,7.146-1.998,10.53-2.431l-2.268,11.017c-2.017.288-4.231.721-6.643,1.296-2.413.577-4.752,1.225-7.02,1.944-2.269.72-4.195,1.477-5.778,2.268l-7.56,35.748h-14.58Z"/>
      </g>
    </g>
    <line class="st3" x1="632.752" y1="134.012" x2="258.971" y2="134.012"/>
    <line class="st3" x1="745.41" y1="134.012" x2="703.905" y2="134.012"/>
    <g>
      <polygon class="st6" points="205.302 123.888 205.302 119.475 205.302 115.061 205.302 110.648 200.889 110.648 200.889 106.234 196.475 106.234 196.475 101.821 196.475 97.408 196.475 92.994 196.475 88.581 192.062 88.581 192.062 84.167 192.062 79.754 187.648 79.754 187.648 75.341 183.235 75.341 183.235 70.927 187.648 70.927 187.648 66.514 187.648 62.1 187.648 57.687 187.648 53.274 187.648 48.86 187.648 44.447 187.648 40.033 187.648 35.62 183.235 35.62 183.235 31.207 183.235 26.793 183.235 22.38 178.822 22.38 178.822 17.966 178.822 13.553 174.408 13.553 169.995 13.553 169.995 17.966 165.581 17.966 161.168 17.966 161.168 22.38 156.755 22.38 156.755 26.793 152.341 26.793 152.341 31.207 147.928 31.207 147.928 35.62 147.928 40.033 143.514 40.033 143.514 44.447 139.101 44.447 139.101 40.033 134.688 40.033 130.274 40.033 125.861 40.033 123.653 40.033 121.444 40.033 117.031 40.033 112.617 40.033 108.204 40.033 108.204 44.447 103.791 44.447 103.791 40.033 99.377 40.033 99.377 35.62 99.377 31.207 94.964 31.207 94.964 26.793 90.551 26.793 90.551 22.38 86.137 22.38 86.137 17.966 81.724 17.966 77.31 17.966 77.31 13.553 72.897 13.553 68.483 13.553 68.483 17.966 68.483 22.38 64.07 22.38 64.07 26.793 64.07 31.207 64.07 35.62 59.657 35.62 59.657 40.033 59.657 44.447 59.657 48.86 59.657 53.274 59.657 57.687 59.657 62.1 59.657 66.514 59.657 70.927 64.07 70.927 64.07 75.341 59.657 75.341 59.657 79.754 55.243 79.754 55.243 84.167 55.243 88.581 50.83 88.581 50.83 92.994 50.83 97.408 50.83 101.821 50.83 106.234 46.416 106.234 46.416 110.648 42.003 110.648 42.003 115.061 42.003 119.475 42.003 123.888 37.59 123.888 37.59 128.301 37.59 132.715 42.003 132.715 42.003 137.128 42.003 141.542 37.59 141.542 37.59 145.955 37.59 150.368 37.59 154.782 37.59 159.195 42.003 159.195 42.003 163.609 42.003 168.022 46.416 168.022 46.416 172.435 50.83 172.435 50.83 176.849 50.83 181.262 50.83 185.676 55.243 185.676 55.243 190.089 59.657 190.089 59.657 194.502 64.07 194.502 64.07 190.089 68.483 190.089 68.483 194.502 72.897 194.502 72.897 198.916 77.31 198.916 77.31 203.329 81.724 203.329 86.137 203.329 86.137 207.743 90.551 207.743 90.551 212.156 94.964 212.156 94.964 216.569 99.377 216.569 103.791 216.569 103.791 220.983 108.204 220.983 108.204 225.396 112.617 225.396 112.617 229.809 117.031 229.809 117.031 234.223 117.031 238.636 121.444 238.636 121.444 243.05 121.444 247.463 123.653 247.463 125.861 247.463 125.861 243.05 125.861 238.636 130.274 238.636 130.274 234.223 130.274 229.809 134.688 229.809 134.688 225.396 139.101 225.396 139.101 220.983 143.514 220.983 143.514 216.569 147.928 216.569 152.341 216.569 152.341 212.156 156.755 212.156 156.755 207.743 161.168 207.743 161.168 203.329 165.581 203.329 169.995 203.329 169.995 198.916 174.408 198.916 174.408 194.502 178.822 194.502 178.822 190.089 183.235 190.089 183.235 194.502 187.648 194.502 187.648 190.089 192.062 190.089 192.062 185.676 196.475 185.676 196.475 181.262 196.475 176.849 196.475 172.435 200.889 172.435 200.889 168.022 205.302 168.022 205.302 163.609 205.302 159.195 209.715 159.195 209.715 154.782 209.715 150.368 209.715 145.955 209.715 141.542 205.302 141.542 205.302 137.128 205.302 132.715 209.715 132.715 209.715 128.301 209.715 123.888 205.302 123.888"/>
      <polygon class="st5" points="187.648 128.301 187.648 132.715 187.648 137.128 187.648 141.542 187.648 145.955 187.648 150.368 187.648 154.782 187.648 159.195 183.235 159.195 183.235 163.609 183.235 168.022 178.822 168.022 178.822 163.609 178.822 159.195 178.822 154.782 174.408 154.782 174.408 159.195 174.408 163.609 174.408 168.022 174.408 172.435 169.995 172.435 169.995 176.849 165.581 176.849 165.581 181.262 161.168 181.262 161.168 185.676 156.755 185.676 156.755 190.089 152.341 190.089 147.928 190.089 147.928 194.502 143.514 194.502 143.514 198.916 139.101 198.916 139.101 203.329 139.101 207.743 134.688 207.743 130.274 207.743 130.274 212.156 130.274 216.569 125.861 216.569 125.861 220.983 123.653 220.983 121.444 220.983 121.444 216.569 117.031 216.569 117.031 212.156 117.031 207.743 112.617 207.743 108.204 207.743 108.204 203.329 108.204 198.916 103.791 198.916 103.791 194.502 99.377 194.502 99.377 190.089 94.964 190.089 90.551 190.089 90.551 185.676 86.137 185.676 86.137 181.262 81.724 181.262 81.724 176.849 77.31 176.849 77.31 172.435 72.897 172.435 72.897 168.022 72.897 163.609 72.897 159.195 72.897 154.782 68.483 154.782 68.483 159.195 68.483 163.609 68.483 168.022 64.07 168.022 64.07 163.609 64.07 159.195 59.657 159.195 59.657 154.782 59.657 150.368 59.657 145.955 59.657 141.542 59.657 137.128 59.657 132.715 59.657 128.301 59.657 123.888 64.07 123.888 64.07 128.301 68.483 128.301 68.483 123.888 68.483 119.475 72.897 119.475 72.897 123.888 77.31 123.888 77.31 128.301 81.724 128.301 86.137 128.301 86.137 123.888 86.137 119.475 81.724 119.475 81.724 115.061 81.724 110.648 81.724 106.234 81.724 101.821 86.137 101.821 86.137 97.408 86.137 92.994 86.137 88.581 86.137 84.167 90.551 84.167 90.551 79.754 94.964 79.754 99.377 79.754 103.791 79.754 108.204 79.754 108.204 84.167 112.617 84.167 112.617 88.581 108.204 88.581 103.791 88.581 103.791 92.994 108.204 92.994 112.617 92.994 112.617 97.408 112.617 101.821 117.031 101.821 117.031 106.234 117.031 110.648 117.031 115.061 117.031 119.475 117.031 123.888 117.031 128.301 121.444 128.301 121.444 132.715 121.444 137.128 123.653 137.128 125.861 137.128 125.861 132.715 125.861 128.301 130.274 128.301 130.274 123.888 130.274 119.475 130.274 115.061 130.274 110.648 130.274 106.234 130.274 101.821 134.688 101.821 134.688 97.408 134.688 92.994 139.101 92.994 143.514 92.994 143.514 88.581 139.101 88.581 134.688 88.581 134.688 84.167 139.101 84.167 139.101 79.754 143.514 79.754 147.928 79.754 152.341 79.754 156.755 79.754 156.755 84.167 161.168 84.167 161.168 88.581 161.168 92.994 161.168 97.408 161.168 101.821 165.581 101.821 165.581 106.234 165.581 110.648 165.581 115.061 165.581 119.475 161.168 119.475 161.168 123.888 161.168 128.301 165.581 128.301 169.995 128.301 169.995 123.888 174.408 123.888 174.408 119.475 178.822 119.475 178.822 123.888 178.822 128.301 183.235 128.301 183.235 123.888 187.648 123.888 187.648 128.301"/>
      <polygon class="st5" points="152.341 58.064 156.755 58.064 156.755 53.651 152.341 53.651 152.341 49.237 156.755 49.237 156.755 44.824 161.168 44.824 161.168 40.411 161.168 35.997 165.581 35.997 165.581 31.584 169.995 31.584 169.995 27.17 174.408 27.17 174.408 31.584 178.822 31.584 178.822 35.997 178.822 40.411 178.822 44.824 178.822 49.237 178.822 53.651 178.822 58.064 178.822 62.478 178.822 66.891 174.408 66.891 169.995 66.891 169.995 71.304 165.581 71.304 161.168 71.304 161.168 66.891 165.581 66.891 169.995 66.891 169.995 62.478 174.408 62.478 174.408 58.064 174.408 53.651 174.408 49.237 174.408 44.824 174.408 40.411 174.408 35.997 174.408 31.584 169.995 31.584 169.995 35.997 169.995 40.411 165.581 40.411 165.581 44.824 161.168 44.824 161.168 49.237 165.581 49.237 165.581 53.651 165.581 58.064 161.168 58.064 156.755 58.064 156.755 62.478 152.341 62.478 152.341 58.064"/>
      <polygon class="st5" points="68.483 62.478 68.483 58.064 68.483 53.651 68.483 49.237 68.483 44.824 68.483 40.411 68.483 35.997 68.483 31.584 72.897 31.584 72.897 27.17 77.31 27.17 77.31 31.584 81.724 31.584 81.724 35.997 86.137 35.997 86.137 40.411 86.137 44.824 90.551 44.824 90.551 49.237 94.964 49.237 94.964 53.651 90.551 53.651 90.551 58.064 94.964 58.064 94.964 62.478 90.551 62.478 90.551 58.064 86.137 58.064 81.724 58.064 81.724 53.651 81.724 49.237 86.137 49.237 86.137 44.824 81.724 44.824 81.724 40.411 77.31 40.411 77.31 35.997 77.31 31.584 72.897 31.584 72.897 35.997 72.897 40.411 72.897 44.824 72.897 49.237 72.897 53.651 72.897 58.064 72.897 62.478 77.31 62.478 77.31 66.891 81.724 66.891 86.137 66.891 86.137 71.304 81.724 71.304 77.31 71.304 77.31 66.891 72.897 66.891 68.483 66.891 68.483 62.478"/>
      <polygon class="st1" points="130.216 172.435 125.803 172.435 125.803 168.022 130.216 168.022 134.63 168.022 134.63 163.609 134.63 159.195 139.043 159.195 139.043 154.782 134.63 154.782 134.63 150.368 130.216 150.368 125.803 150.368 123.709 150.368 123.596 150.368 121.502 150.368 117.089 150.368 112.676 150.368 112.676 154.782 108.262 154.782 108.262 159.195 112.676 159.195 112.676 163.609 112.676 168.022 117.089 168.022 121.502 168.022 121.502 172.435 117.089 172.435 112.676 172.435 108.262 172.435 108.262 176.849 112.676 176.849 112.676 181.262 117.089 181.262 121.502 181.262 123.596 181.262 123.709 181.262 125.803 181.262 130.216 181.262 134.63 181.262 134.63 176.849 139.043 176.849 139.043 172.435 134.63 172.435 130.216 172.435"/>
      <rect class="st1" x="139.043" y="168.022" width="4.413" height="4.413"/>
      <polygon class="st1" points="165.523 137.128 161.11 137.128 161.11 141.542 156.697 141.542 156.697 145.955 152.283 145.955 152.283 141.542 147.87 141.542 147.87 145.955 143.456 145.955 143.456 150.368 143.456 154.782 143.456 159.195 143.456 163.609 143.456 168.022 147.87 168.022 147.87 163.609 147.87 159.195 152.283 159.195 152.283 154.782 156.697 154.782 156.697 150.368 161.11 150.368 161.11 145.955 165.523 145.955 165.523 141.542 169.937 141.542 169.937 137.128 165.523 137.128"/>
      <rect class="st1" x="152.283" y="137.128" width="4.413" height="4.413"/>
      <polygon class="st1" points="139.043 119.475 143.456 119.475 147.87 119.475 147.87 115.061 152.283 115.061 156.697 115.061 156.697 110.648 161.11 110.648 161.11 106.234 161.11 101.821 156.697 101.821 152.283 101.821 147.87 101.821 143.456 101.821 139.043 101.821 139.043 106.234 134.63 106.234 134.63 110.648 134.63 115.061 134.63 119.475 134.63 123.888 139.043 123.888 139.043 119.475"/>
      <rect class="st1" x="103.849" y="168.022" width="4.413" height="4.413"/>
      <polygon class="st1" points="103.849 159.195 103.849 154.782 103.849 150.368 103.849 145.955 99.436 145.955 99.436 141.542 95.022 141.542 95.022 145.955 90.609 145.955 90.609 141.542 86.195 141.542 86.195 137.128 81.782 137.128 77.368 137.128 77.368 141.542 81.782 141.542 81.782 145.955 86.195 145.955 86.195 150.368 90.609 150.368 90.609 154.782 95.022 154.782 95.022 159.195 99.436 159.195 99.436 163.609 99.436 168.022 103.849 168.022 103.849 163.609 103.849 159.195"/>
      <rect class="st1" x="90.609" y="137.128" width="4.413" height="4.413"/>
      <polygon class="st1" points="90.609 115.061 95.022 115.061 99.436 115.061 99.436 119.475 103.849 119.475 108.262 119.475 108.262 123.888 112.676 123.888 112.676 119.475 112.676 115.061 112.676 110.648 112.676 106.234 108.262 106.234 108.262 101.821 103.849 101.821 99.436 101.821 95.022 101.821 90.609 101.821 86.195 101.821 86.195 106.234 86.195 110.648 90.609 110.648 90.609 115.061"/>
      <rect class="st5" x="128.419" y="155.016" width="5.054" height="3.785"/>
    </g>
  </g>
</svg>
