<?xml version="1.0" encoding="UTF-8"?>
<svg id="Ebene_1" xmlns="http://www.w3.org/2000/svg" version="1.1" viewBox="0 0 841.975 262.588">
  <!-- Generator: Adobe Illustrator 29.7.1, SVG Export Plug-In . SVG Version: 2.1.1 Build 8)  -->
  <defs>
    <style>
      .st0 {
        fill: #00d80a;
      }

      .st1 {
        fill: #271d34;
      }

      .st2 {
        stroke: #fff;
        stroke-width: 4px;
      }

      .st2, .st3 {
        fill: none;
        stroke-miterlimit: 10;
      }

      .st4 {
        isolation: isolate;
      }

      .st5 {
        fill: #fff;
      }

      .st3 {
        stroke: #271d34;
        stroke-width: 2px;
      }
    </style>
  </defs>
  <line class="st2" x1="1324.797" y1="154.165" x2="1262.12" y2="154.165"/>
  <g>
    <g class="st4">
      <g class="st4">
        <path class="st1" d="M261.313,118.597v-44.172h-7.668v-7.021h7.668v-7.451c0-4.896,1.35-8.766,4.05-11.61,2.7-2.844,6.677-4.266,11.934-4.266,1.872,0,3.581.145,5.13.432,1.547.288,2.97.685,4.266,1.188v6.696c-2.232-.791-4.609-1.188-7.128-1.188-3.672,0-6.156.666-7.452,1.998-1.296,1.333-1.944,3.582-1.944,6.75v7.451h13.824l-.432,7.021h-13.392v44.172h-8.856Z"/>
        <path class="st1" d="M293.497,118.597v-51.192h7.992l.648,6.48c2.519-1.655,5.489-3.168,8.91-4.536,3.419-1.367,6.786-2.376,10.098-3.024v6.912c-2.017.433-4.212,1.026-6.588,1.782s-4.644,1.604-6.804,2.538c-2.16.937-3.96,1.908-5.4,2.916v38.124h-8.856Z"/>
        <path class="st1" d="M353.869,119.677c-9.145,0-15.983-2.195-20.52-6.588-4.536-4.391-6.805-11.159-6.805-20.304,0-8.208,1.961-14.67,5.887-19.387,3.923-4.715,10.133-7.074,18.63-7.074,5.039,0,9.196.919,12.474,2.755,3.275,1.836,5.724,4.356,7.344,7.56,1.62,3.204,2.431,6.822,2.431,10.854v9.611h-37.908c.287,3.889,1.134,6.949,2.538,9.181s3.526,3.834,6.372,4.806c2.843.972,6.604,1.458,11.286,1.458,5.255,0,10.079-.899,14.472-2.7v6.912c-2.232.937-4.735,1.657-7.506,2.16-2.772.503-5.67.756-8.694.756h-.001ZM335.401,90.733h30.023v-4.212c0-4.175-1.098-7.397-3.294-9.666-2.196-2.268-5.814-3.401-10.854-3.401-6.121,0-10.297,1.44-12.528,4.319-2.232,2.881-3.348,7.201-3.348,12.96h.001Z"/>
        <path class="st1" d="M411.433,119.677c-9.145,0-15.984-2.195-20.521-6.588-4.536-4.391-6.804-11.159-6.804-20.304,0-8.208,1.961-14.67,5.886-19.387,3.924-4.715,10.134-7.074,18.63-7.074,5.039,0,9.197.919,12.475,2.755,3.275,1.836,5.724,4.356,7.344,7.56,1.62,3.204,2.43,6.822,2.43,10.854v9.611h-37.908c.287,3.889,1.135,6.949,2.538,9.181,1.404,2.232,3.527,3.834,6.372,4.806,2.844.972,6.605,1.458,11.286,1.458,5.255,0,10.079-.899,14.472-2.7v6.912c-2.232.937-4.734,1.657-7.506,2.16-2.772.503-5.67.756-8.693.756h-.001ZM392.964,90.733h30.024v-4.212c0-4.175-1.099-7.397-3.294-9.666-2.197-2.268-5.815-3.401-10.854-3.401-6.12,0-10.297,1.44-12.527,4.319-2.232,2.881-3.349,7.201-3.349,12.96h0Z"/>
        <path class="st1" d="M474.395,118.597v-44.172h-7.884l.864-7.021h15.876v51.192h-8.856ZM473.53,55.418v-8.101h9.828v8.101h-9.828Z"/>
        <path class="st1" d="M498.477,118.597v-51.192h7.992l.54,5.832c2.735-2.159,5.633-3.851,8.694-5.075,3.06-1.224,6.354-1.837,9.882-1.837,3.815,0,6.785.613,8.91,1.837,2.123,1.225,3.688,2.953,4.698,5.184,2.446-2.015,5.255-3.688,8.424-5.022,3.167-1.331,6.947-1.998,11.34-1.998,5.832,0,10.169,1.495,13.014,4.482,2.844,2.988,4.267,7.578,4.267,13.771v34.02h-8.748v-33.156c0-4.536-.955-7.668-2.862-9.396-1.908-1.729-4.986-2.592-9.234-2.592-2.808,0-5.49.469-8.046,1.403-2.557.937-4.734,2.376-6.533,4.32.432,1.801.647,3.888.647,6.264v33.156h-8.316v-32.94c0-4.319-.72-7.433-2.159-9.342-1.441-1.906-4.285-2.861-8.532-2.861-2.881,0-5.635.631-8.262,1.89-2.63,1.261-4.951,2.826-6.967,4.698v38.556h-8.748v-.002Z"/>
        <path class="st1" d="M605.072,119.677c-3.239,0-6.229-.577-8.964-1.729-2.736-1.15-4.933-2.861-6.588-5.13-1.657-2.268-2.483-5.13-2.483-8.586,0-4.679,1.547-8.513,4.644-11.502,3.095-2.986,8.136-4.481,15.12-4.481h17.82v-3.133c0-2.808-.378-5.038-1.135-6.695-.756-1.655-2.178-2.844-4.266-3.564-2.089-.719-5.148-1.08-9.18-1.08-3.097,0-6.085.254-8.964.756-2.881.505-5.581,1.188-8.101,2.053v-7.345c2.304-.863,5.022-1.565,8.154-2.105s6.497-.811,10.098-.811c7.271,0,12.726,1.477,16.362,4.429,3.635,2.953,5.454,7.74,5.454,14.363v33.48h-7.452l-.648-5.832c-2.232,2.305-4.933,4.033-8.1,5.184-3.169,1.151-7.093,1.729-11.772,1.729h0ZM607.341,112.441c3.743,0,7.056-.665,9.936-1.998,2.879-1.331,5.328-3.148,7.345-5.454v-9.936h-17.604c-4.033,0-6.912.756-8.64,2.268-1.729,1.513-2.592,3.817-2.592,6.912s1.042,5.238,3.132,6.426c2.087,1.188,4.896,1.782,8.424,1.782h0Z"/>
        <path class="st1" d="M667.495,137.605c-3.816,0-7.543-.216-11.178-.647-3.637-.433-6.75-1.117-9.342-2.053v-7.344c2.879.935,6.119,1.655,9.72,2.16,3.6.503,7.056.756,10.368.756,5.4,0,9.358-.324,11.88-.972,2.52-.648,3.78-2.306,3.78-4.968,0-1.874-.667-3.205-1.998-3.996-1.333-.794-3.69-1.188-7.074-1.188h-13.607c-9.434,0-14.148-3.167-14.148-9.504,0-2.087.665-4.085,1.998-5.994,1.331-1.906,3.329-3.257,5.994-4.05-2.881-1.439-5.005-3.438-6.372-5.994-1.369-2.555-2.052-5.598-2.052-9.126,0-6.407,1.853-11.07,5.562-13.986,3.708-2.916,9.378-4.374,17.01-4.374,1.583,0,3.222.127,4.914.379,1.691.253,3.006.485,3.942.701h18.468l-.324,6.049h-9.288c1.656,1.368,2.844,3.007,3.564,4.913.719,1.909,1.08,4.015,1.08,6.318,0,5.688-1.657,10.098-4.968,13.23-3.312,3.132-8.389,4.697-15.229,4.697-1.152,0-2.179-.054-3.078-.162-.9-.107-1.962-.232-3.186-.378-2.232.073-4.32.702-6.265,1.891-1.943,1.188-2.915,2.719-2.915,4.59,0,1.225.485,2.124,1.458,2.7.972.577,2.754.863,5.346.863h14.147c5.111,0,9.035,1.026,11.772,3.078,2.735,2.053,4.104,5.058,4.104,9.019,0,5.039-2.089,8.532-6.264,10.476-4.177,1.944-10.116,2.916-17.82,2.916h0ZM668.035,95.918c5.111,0,8.641-.827,10.584-2.484,1.944-1.655,2.916-4.571,2.916-8.748s-1.025-7.199-3.078-9.072c-2.052-1.871-5.526-2.808-10.422-2.808-4.824,0-8.315.901-10.476,2.7-2.16,1.801-3.24,4.859-3.24,9.18,0,3.961,1.026,6.822,3.078,8.586,2.052,1.766,5.598,2.646,10.638,2.646Z"/>
        <path class="st1" d="M729.704,119.677c-9.145,0-15.983-2.195-20.52-6.588-4.536-4.391-6.804-11.159-6.804-20.304,0-8.208,1.961-14.67,5.886-19.387,3.923-4.715,10.134-7.074,18.63-7.074,5.039,0,9.197.919,12.474,2.755,3.275,1.836,5.725,4.356,7.345,7.56,1.619,3.204,2.43,6.822,2.43,10.854v9.611h-37.908c.287,3.889,1.134,6.949,2.538,9.181,1.404,2.232,3.527,3.834,6.372,4.806,2.844.972,6.604,1.458,11.286,1.458,5.255,0,10.079-.899,14.472-2.7v6.912c-2.232.937-4.735,1.657-7.506,2.16-2.772.503-5.67.756-8.694.756h0ZM711.236,90.733h30.024v-4.212c0-4.175-1.099-7.397-3.294-9.666-2.197-2.268-5.815-3.401-10.854-3.401-6.12,0-10.297,1.44-12.528,4.319-2.232,2.881-3.348,7.201-3.348,12.96h0Z"/>
      </g>
    </g>
    <g class="st4">
      <g class="st4">
        <path class="st0" d="M279.175,220.872c-5.473,0-10.135-1.009-13.986-3.024-3.853-2.015-6.553-5.003-8.1-8.964-1.549-3.959-1.711-8.855-.486-14.688,1.871-9,5.724-15.695,11.556-20.088,5.832-4.392,13.428-6.589,22.788-6.589,3.6,0,6.642.254,9.126.757,2.484.504,4.842,1.333,7.074,2.483l-2.269,10.477c-1.584-.864-3.51-1.548-5.777-2.053-2.269-.503-4.771-.756-7.506-.756-5.473,0-9.901,1.134-13.284,3.402-3.385,2.268-5.689,6.391-6.912,12.366-1.153,5.473-.847,9.469.918,11.987,1.763,2.521,5.921,3.78,12.474,3.78,2.519,0,5.039-.251,7.56-.756,2.52-.503,4.931-1.259,7.235-2.268l-2.268,10.8c-5.329,2.087-11.377,3.132-18.144,3.132v.002Z"/>
        <path class="st0" d="M329.179,220.872c-9.146,0-15.553-2.322-19.225-6.966-3.672-4.645-4.608-11.214-2.808-19.71,1.799-8.495,5.327-15.066,10.584-19.71,5.255-4.645,12.852-6.967,22.788-6.967,9.288,0,15.768,2.322,19.439,6.967,3.672,4.644,4.607,11.215,2.809,19.71-1.801,8.496-5.292,15.065-10.477,19.71-5.184,4.644-12.889,6.966-23.111,6.966h.001ZM331.878,208.452c4.68,0,8.244-1.062,10.692-3.187,2.447-2.122,4.247-5.813,5.4-11.069,1.079-5.255.935-8.945-.433-11.07-1.368-2.123-4.573-3.186-9.612-3.186-4.608,0-8.153,1.062-10.638,3.186-2.483,2.125-4.266,5.815-5.346,11.07-1.152,5.256-1.045,8.947.324,11.069,1.366,2.125,4.571,3.187,9.611,3.187h.002Z"/>
        <path class="st0" d="M365.466,219.792l10.8-51.192h13.5l-.54,4.969c2.879-1.872,5.886-3.349,9.018-4.429s6.389-1.62,9.774-1.62c3.6,0,6.28.54,8.046,1.62,1.764,1.08,2.97,2.63,3.618,4.645,2.735-1.872,5.759-3.384,9.072-4.536,3.311-1.151,7.055-1.729,11.231-1.729,5.471,0,9.396,1.531,11.772,4.591,2.376,3.061,2.916,7.722,1.619,13.985l-7.128,33.696h-14.363l6.804-32.076c.719-3.383.594-5.813-.378-7.29-.972-1.475-3.224-2.214-6.75-2.214-4.32,0-8.245,1.549-11.772,4.645.071,1.225-.072,2.699-.432,4.428l-6.804,32.508h-13.608l6.804-32.076c.648-3.167.595-5.543-.161-7.128-.757-1.583-2.684-2.376-5.778-2.376-2.16,0-4.304.559-6.426,1.674-2.125,1.117-4.123,2.395-5.994,3.834l-7.561,36.072h-14.363,0Z"/>
        <path class="st0" d="M451.108,243.12l15.769-74.521h12.636l-.216,4.752c2.592-1.871,5.327-3.311,8.208-4.319,2.879-1.008,6.119-1.513,9.72-1.513,7.128,0,12.366,2.125,15.714,6.372,3.349,4.25,4.05,10.98,2.106,20.196-1.944,9.217-5.4,15.984-10.368,20.304-4.968,4.32-11.521,6.48-19.656,6.48-5.761,0-10.368-1.296-13.824-3.888l-5.508,26.136h-14.581ZM483.617,210.179c4.319,0,7.884-1.296,10.691-3.888,2.809-2.592,4.823-6.731,6.048-12.42,1.151-5.471,1.098-9.45-.162-11.934-1.26-2.484-4.374-3.727-9.342-3.727-4.465,0-8.604,1.549-12.42,4.645l-4.968,23.436c1.224,1.152,2.608,2.089,4.158,2.808,1.547.721,3.545,1.08,5.994,1.08h.001Z"/>
        <path class="st0" d="M517.637,219.792l10.8-51.192h13.5l-.433,5.292c2.663-1.439,5.813-2.754,9.45-3.941,3.635-1.188,7.146-1.998,10.53-2.431l-2.268,11.017c-2.017.288-4.231.721-6.643,1.296-2.413.577-4.752,1.225-7.02,1.944-2.269.72-4.195,1.477-5.778,2.268l-7.56,35.748h-14.58.002Z"/>
        <path class="st0" d="M580.061,220.872c-5.545,0-10.278-.972-14.202-2.916-3.925-1.944-6.696-4.914-8.315-8.91-1.62-3.996-1.819-8.98-.595-14.958,1.151-5.471,2.952-10.188,5.4-14.147,2.447-3.959,5.813-7.021,10.098-9.181,4.283-2.16,9.666-3.24,16.146-3.24,7.919,0,13.554,2.071,16.901,6.211,3.349,4.141,4.302,9.558,2.862,16.254l-1.944,9.288h-37.044c-.072,4.104,1.026,6.911,3.294,8.424,2.269,1.512,6.534,2.268,12.799,2.268,2.735,0,5.578-.251,8.531-.756,2.952-.503,5.509-1.151,7.668-1.944l-2.159,10.368c-2.593,1.08-5.546,1.891-8.856,2.43-3.312.54-6.841.811-10.584.811v-.002ZM571.312,190.307h24.3l.54-2.808c.648-2.951.287-5.273-1.08-6.966-1.368-1.691-4.104-2.538-8.208-2.538-4.824,0-8.389.972-10.691,2.916-2.306,1.944-3.926,5.076-4.86,9.396h0Z"/>
        <path class="st0" d="M627.366,220.872c-3.817,0-7.382-.271-10.692-.811-3.312-.539-5.939-1.204-7.884-1.997l2.592-12.097c2.304,1.01,4.985,1.782,8.046,2.322,3.06.54,5.922.81,8.586.81,3.6,0,6.191-.216,7.776-.647,1.583-.433,2.52-1.404,2.808-2.916.359-1.729-.522-2.987-2.646-3.78-2.125-.791-5.238-1.907-9.342-3.348-4.393-1.583-7.614-3.546-9.666-5.886-2.053-2.339-2.611-5.598-1.675-9.774,1.08-4.896,3.564-8.657,7.452-11.286,3.889-2.627,10.007-3.942,18.36-3.942,3.167,0,6.119.235,8.855.702,2.735.47,5.004,1.026,6.805,1.674l-2.593,11.988c-1.728-.935-3.798-1.637-6.21-2.105-2.413-.468-4.697-.702-6.857-.702-3.097,0-5.6.216-7.506.647-1.909.433-3.043,1.369-3.402,2.809-.288,1.584.468,2.7,2.269,3.348,1.799.648,4.679,1.62,8.64,2.916,5.687,1.873,9.377,4.068,11.07,6.588,1.69,2.521,2.105,5.832,1.241,9.937-1.08,5.113-3.654,8.982-7.722,11.609-4.068,2.63-10.171,3.942-18.306,3.942h0Z"/>
        <path class="st0" d="M673.374,220.872c-3.817,0-7.382-.271-10.692-.811-3.312-.539-5.939-1.204-7.884-1.997l2.592-12.097c2.304,1.01,4.985,1.782,8.046,2.322,3.06.54,5.922.81,8.586.81,3.6,0,6.191-.216,7.776-.647,1.583-.433,2.52-1.404,2.808-2.916.359-1.729-.522-2.987-2.646-3.78-2.125-.791-5.238-1.907-9.342-3.348-4.393-1.583-7.614-3.546-9.666-5.886-2.053-2.339-2.611-5.598-1.675-9.774,1.08-4.896,3.564-8.657,7.452-11.286,3.889-2.627,10.007-3.942,18.36-3.942,3.167,0,6.119.235,8.855.702,2.735.47,5.004,1.026,6.805,1.674l-2.593,11.988c-1.728-.935-3.798-1.637-6.21-2.105-2.413-.468-4.697-.702-6.857-.702-3.097,0-5.6.216-7.506.647-1.909.433-3.043,1.369-3.402,2.809-.288,1.584.468,2.7,2.269,3.348,1.799.648,4.679,1.62,8.64,2.916,5.687,1.873,9.377,4.068,11.07,6.588,1.69,2.521,2.105,5.832,1.241,9.937-1.08,5.113-3.654,8.982-7.722,11.609-4.068,2.63-10.171,3.942-18.306,3.942h0Z"/>
        <path class="st0" d="M727.913,220.872c-9.146,0-15.553-2.322-19.225-6.966-3.672-4.645-4.608-11.214-2.808-19.71,1.799-8.495,5.327-15.066,10.584-19.71,5.255-4.645,12.852-6.967,22.788-6.967,9.288,0,15.768,2.322,19.439,6.967,3.672,4.644,4.607,11.215,2.809,19.71-1.801,8.496-5.292,15.065-10.477,19.71-5.184,4.644-12.889,6.966-23.111,6.966h0ZM730.612,208.452c4.68,0,8.244-1.062,10.692-3.187,2.447-2.122,4.247-5.813,5.4-11.069,1.079-5.255.935-8.945-.433-11.07-1.368-2.123-4.573-3.186-9.612-3.186-4.608,0-8.153,1.062-10.638,3.186-2.483,2.125-4.266,5.815-5.346,11.07-1.152,5.256-1.045,8.947.324,11.069,1.366,2.125,4.571,3.187,9.611,3.187h.002Z"/>
        <path class="st0" d="M764.2,219.792l10.8-51.192h13.5l-.433,5.292c2.663-1.439,5.813-2.754,9.45-3.941,3.635-1.188,7.146-1.998,10.53-2.431l-2.268,11.017c-2.017.288-4.231.721-6.643,1.296-2.413.577-4.752,1.225-7.02,1.944-2.269.72-4.195,1.477-5.778,2.268l-7.56,35.748h-14.58.002Z"/>
      </g>
    </g>
    <line class="st3" x1="632.752" y1="134.012" x2="258.971" y2="134.012"/>
    <polyline class="st3" points="779.759 67.404 779.759 134.012 745.41 134.012 703.905 134.012"/>
    <g>
      <polygon class="st1" points="189.119 129.214 189.119 125.685 189.119 122.155 189.119 118.626 185.59 118.626 185.59 115.096 182.06 115.096 182.06 111.567 182.06 108.038 182.06 104.508 182.06 100.979 178.531 100.979 178.531 97.449 178.531 93.92 175.001 93.92 175.001 90.391 171.472 90.391 171.472 86.861 175.001 86.861 175.001 83.332 175.001 79.802 175.001 76.273 175.001 72.744 175.001 69.214 175.001 65.685 175.001 62.155 175.001 58.626 171.472 58.626 171.472 55.097 171.472 51.567 171.472 48.038 167.943 48.038 167.943 44.508 167.943 40.979 164.413 40.979 160.884 40.979 160.884 44.508 157.354 44.508 153.825 44.508 153.825 48.038 150.296 48.038 150.296 51.567 146.766 51.567 146.766 55.097 143.237 55.097 143.237 58.626 143.237 62.155 139.707 62.155 139.707 65.685 136.178 65.685 136.178 62.155 132.649 62.155 129.119 62.155 125.59 62.155 123.824 62.155 122.058 62.155 118.529 62.155 114.999 62.155 111.47 62.155 111.47 65.685 107.941 65.685 107.941 62.155 104.411 62.155 104.411 58.626 104.411 55.097 100.882 55.097 100.882 51.567 97.353 51.567 97.353 48.038 93.823 48.038 93.823 44.508 90.294 44.508 86.764 44.508 86.764 40.979 83.235 40.979 79.705 40.979 79.705 44.508 79.705 48.038 76.176 48.038 76.176 51.567 76.176 55.097 76.176 58.626 72.647 58.626 72.647 62.155 72.647 65.685 72.647 69.214 72.647 72.744 72.647 76.273 72.647 79.802 72.647 83.332 72.647 86.861 76.176 86.861 76.176 90.391 72.647 90.391 72.647 93.92 69.117 93.92 69.117 97.449 69.117 100.979 65.588 100.979 65.588 104.508 65.588 108.038 65.588 111.567 65.588 115.096 62.058 115.096 62.058 118.626 58.529 118.626 58.529 122.155 58.529 125.685 58.529 129.214 55 129.214 55 132.743 55 136.273 58.529 136.273 58.529 139.802 58.529 143.332 55 143.332 55 146.861 55 150.39 55 153.92 55 157.449 58.529 157.449 58.529 160.979 58.529 164.508 62.058 164.508 62.058 168.037 65.588 168.037 65.588 171.567 65.588 175.096 65.588 178.626 69.117 178.626 69.117 182.155 72.647 182.155 72.647 185.684 76.176 185.684 76.176 182.155 79.705 182.155 79.705 185.684 83.235 185.684 83.235 189.214 86.764 189.214 86.764 192.743 90.294 192.743 93.823 192.743 93.823 196.273 97.353 196.273 97.353 199.802 100.882 199.802 100.882 203.331 104.411 203.331 107.941 203.331 107.941 206.861 111.47 206.861 111.47 210.39 114.999 210.39 114.999 213.919 118.529 213.919 118.529 217.449 118.529 220.978 122.058 220.978 122.058 224.508 122.058 228.037 123.824 228.037 125.59 228.037 125.59 224.508 125.59 220.978 129.119 220.978 129.119 217.449 129.119 213.919 132.649 213.919 132.649 210.39 136.178 210.39 136.178 206.861 139.707 206.861 139.707 203.331 143.237 203.331 146.766 203.331 146.766 199.802 150.296 199.802 150.296 196.273 153.825 196.273 153.825 192.743 157.354 192.743 160.884 192.743 160.884 189.214 164.413 189.214 164.413 185.684 167.943 185.684 167.943 182.155 171.472 182.155 171.472 185.684 175.001 185.684 175.001 182.155 178.531 182.155 178.531 178.626 182.06 178.626 182.06 175.096 182.06 171.567 182.06 168.037 185.59 168.037 185.59 164.508 189.119 164.508 189.119 160.979 189.119 157.449 192.648 157.449 192.648 153.92 192.648 150.39 192.648 146.861 192.648 143.332 189.119 143.332 189.119 139.802 189.119 136.273 192.648 136.273 192.648 132.743 192.648 129.214 189.119 129.214"/>
      <polygon class="st5" points="175.001 132.743 175.001 136.273 175.001 139.802 175.001 143.332 175.001 146.861 175.001 150.39 175.001 153.92 175.001 157.449 171.472 157.449 171.472 160.979 171.472 164.508 167.943 164.508 167.943 160.979 167.943 157.449 167.943 153.92 164.413 153.92 164.413 157.449 164.413 160.979 164.413 164.508 164.413 168.037 160.884 168.037 160.884 171.567 157.354 171.567 157.354 175.096 153.825 175.096 153.825 178.626 150.296 178.626 150.296 182.155 146.766 182.155 143.237 182.155 143.237 185.684 139.707 185.684 139.707 189.214 136.178 189.214 136.178 192.743 136.178 196.273 132.649 196.273 129.119 196.273 129.119 199.802 129.119 203.331 125.59 203.331 125.59 206.861 123.824 206.861 122.058 206.861 122.058 203.331 118.529 203.331 118.529 199.802 118.529 196.273 114.999 196.273 111.47 196.273 111.47 192.743 111.47 189.214 107.941 189.214 107.941 185.684 104.411 185.684 104.411 182.155 100.882 182.155 97.353 182.155 97.353 178.626 93.823 178.626 93.823 175.096 90.294 175.096 90.294 171.567 86.764 171.567 86.764 168.037 83.235 168.037 83.235 164.508 83.235 160.979 83.235 157.449 83.235 153.92 79.705 153.92 79.705 157.449 79.705 160.979 79.705 164.508 76.176 164.508 76.176 160.979 76.176 157.449 72.647 157.449 72.647 153.92 72.647 150.39 72.647 146.861 72.647 143.332 72.647 139.802 72.647 136.273 72.647 132.743 72.647 129.214 76.176 129.214 76.176 132.743 79.705 132.743 79.705 129.214 79.705 125.685 83.235 125.685 83.235 129.214 86.764 129.214 86.764 132.743 90.294 132.743 93.823 132.743 93.823 129.214 93.823 125.685 90.294 125.685 90.294 122.155 90.294 118.626 90.294 115.096 90.294 111.567 93.823 111.567 93.823 108.038 93.823 104.508 93.823 100.979 93.823 97.449 97.353 97.449 97.353 93.92 100.882 93.92 104.411 93.92 107.941 93.92 111.47 93.92 111.47 97.449 114.999 97.449 114.999 100.979 111.47 100.979 107.941 100.979 107.941 104.508 111.47 104.508 114.999 104.508 114.999 108.038 114.999 111.567 118.529 111.567 118.529 115.096 118.529 118.626 118.529 122.155 118.529 125.685 118.529 129.214 118.529 132.743 122.058 132.743 122.058 136.273 122.058 139.802 123.824 139.802 125.59 139.802 125.59 136.273 125.59 132.743 129.119 132.743 129.119 129.214 129.119 125.685 129.119 122.155 129.119 118.626 129.119 115.096 129.119 111.567 132.649 111.567 132.649 108.038 132.649 104.508 136.178 104.508 139.707 104.508 139.707 100.979 136.178 100.979 132.649 100.979 132.649 97.449 136.178 97.449 136.178 93.92 139.707 93.92 143.237 93.92 146.766 93.92 150.296 93.92 150.296 97.449 153.825 97.449 153.825 100.979 153.825 104.508 153.825 108.038 153.825 111.567 157.354 111.567 157.354 115.096 157.354 118.626 157.354 122.155 157.354 125.685 153.825 125.685 153.825 129.214 153.825 132.743 157.354 132.743 160.884 132.743 160.884 129.214 164.413 129.214 164.413 125.685 167.943 125.685 167.943 129.214 167.943 132.743 171.472 132.743 171.472 129.214 175.001 129.214 175.001 132.743"/>
      <polygon class="st5" points="146.766 76.575 150.296 76.575 150.296 73.046 146.766 73.046 146.766 69.516 150.296 69.516 150.296 65.987 153.825 65.987 153.825 62.458 153.825 58.928 157.354 58.928 157.354 55.399 160.884 55.399 160.884 51.869 164.413 51.869 164.413 55.399 167.943 55.399 167.943 58.928 167.943 62.458 167.943 65.987 167.943 69.516 167.943 73.046 167.943 76.575 167.943 80.105 167.943 83.634 164.413 83.634 160.884 83.634 160.884 87.163 157.354 87.163 153.825 87.163 153.825 83.634 157.354 83.634 160.884 83.634 160.884 80.105 164.413 80.105 164.413 76.575 164.413 73.046 164.413 69.516 164.413 65.987 164.413 62.458 164.413 58.928 164.413 55.399 160.884 55.399 160.884 58.928 160.884 62.458 157.354 62.458 157.354 65.987 153.825 65.987 153.825 69.516 157.354 69.516 157.354 73.046 157.354 76.575 153.825 76.575 150.296 76.575 150.296 80.105 146.766 80.105 146.766 76.575"/>
      <polygon class="st5" points="79.705 80.105 79.705 76.575 79.705 73.046 79.705 69.516 79.705 65.987 79.705 62.458 79.705 58.928 79.705 55.399 83.235 55.399 83.235 51.869 86.764 51.869 86.764 55.399 90.294 55.399 90.294 58.928 93.823 58.928 93.823 62.458 93.823 65.987 97.353 65.987 97.353 69.516 100.882 69.516 100.882 73.046 97.353 73.046 97.353 76.575 100.882 76.575 100.882 80.105 97.353 80.105 97.353 76.575 93.823 76.575 90.294 76.575 90.294 73.046 90.294 69.516 93.823 69.516 93.823 65.987 90.294 65.987 90.294 62.458 86.764 62.458 86.764 58.928 86.764 55.399 83.235 55.399 83.235 58.928 83.235 62.458 83.235 65.987 83.235 69.516 83.235 73.046 83.235 76.575 83.235 80.105 86.764 80.105 86.764 83.634 90.294 83.634 93.823 83.634 93.823 87.163 90.294 87.163 86.764 87.163 86.764 83.634 83.235 83.634 79.705 83.634 79.705 80.105"/>
      <polygon class="st1" points="129.073 168.037 125.544 168.037 125.544 164.508 129.073 164.508 132.603 164.508 132.603 160.979 132.603 157.449 136.132 157.449 136.132 153.92 132.603 153.92 132.603 150.39 129.073 150.39 125.544 150.39 123.869 150.39 123.779 150.39 122.104 150.39 118.575 150.39 115.046 150.39 115.046 153.92 111.516 153.92 111.516 157.449 115.046 157.449 115.046 160.979 115.046 164.508 118.575 164.508 122.104 164.508 122.104 168.037 118.575 168.037 115.046 168.037 111.516 168.037 111.516 171.567 115.046 171.567 115.046 175.096 118.575 175.096 122.104 175.096 123.779 175.096 123.869 175.096 125.544 175.096 129.073 175.096 132.603 175.096 132.603 171.567 136.132 171.567 136.132 168.037 132.603 168.037 129.073 168.037"/>
      <rect class="st1" x="136.132" y="164.508" width="3.529" height="3.529"/>
      <polygon class="st1" points="157.308 139.802 153.779 139.802 153.779 143.332 150.25 143.332 150.25 146.861 146.72 146.861 146.72 143.332 143.191 143.332 143.191 146.861 139.661 146.861 139.661 150.39 139.661 153.92 139.661 157.449 139.661 160.979 139.661 164.508 143.191 164.508 143.191 160.979 143.191 157.449 146.72 157.449 146.72 153.92 150.25 153.92 150.25 150.39 153.779 150.39 153.779 146.861 157.308 146.861 157.308 143.332 160.838 143.332 160.838 139.802 157.308 139.802"/>
      <rect class="st1" x="146.72" y="139.802" width="3.529" height="3.529"/>
      <polygon class="st1" points="136.132 125.685 139.661 125.685 143.191 125.685 143.191 122.155 146.72 122.155 150.25 122.155 150.25 118.626 153.779 118.626 153.779 115.096 153.779 111.567 150.25 111.567 146.72 111.567 143.191 111.567 139.661 111.567 136.132 111.567 136.132 115.096 132.603 115.096 132.603 118.626 132.603 122.155 132.603 125.685 132.603 129.214 136.132 129.214 136.132 125.685"/>
      <rect class="st1" x="107.987" y="164.508" width="3.529" height="3.529"/>
      <polygon class="st1" points="107.987 157.449 107.987 153.92 107.987 150.39 107.987 146.861 104.458 146.861 104.458 143.332 100.928 143.332 100.928 146.861 97.399 146.861 97.399 143.332 93.869 143.332 93.869 139.802 90.34 139.802 86.81 139.802 86.81 143.332 90.34 143.332 90.34 146.861 93.869 146.861 93.869 150.39 97.399 150.39 97.399 153.92 100.928 153.92 100.928 157.449 104.458 157.449 104.458 160.979 104.458 164.508 107.987 164.508 107.987 160.979 107.987 157.449"/>
      <rect class="st1" x="97.399" y="139.802" width="3.529" height="3.529"/>
      <polygon class="st1" points="97.399 122.155 100.928 122.155 104.458 122.155 104.458 125.685 107.987 125.685 111.516 125.685 111.516 129.214 115.046 129.214 115.046 125.685 115.046 122.155 115.046 118.626 115.046 115.096 111.516 115.096 111.516 111.567 107.987 111.567 104.458 111.567 100.928 111.567 97.399 111.567 93.869 111.567 93.869 115.096 93.869 118.626 97.399 118.626 97.399 122.155"/>
      <rect class="st5" x="127.636" y="154.107" width="4.042" height="3.027"/>
    </g>
  </g>
  <metadata><?xpacket begin="﻿" id="W5M0MpCehiHzreSzNTczkc9d"?>
<x:xmpmeta xmlns:x="adobe:ns:meta/" x:xmptk="Adobe XMP Core 9.1-c003 1.000000, 0000/00/00-00:00:00        ">
   <rdf:RDF xmlns:rdf="http://www.w3.org/1999/02/22-rdf-syntax-ns#">
      <rdf:Description rdf:about=""
            xmlns:xmp="http://ns.adobe.com/xap/1.0/"
            xmlns:xmpGImg="http://ns.adobe.com/xap/1.0/g/img/"
            xmlns:xmpTPg="http://ns.adobe.com/xap/1.0/t/pg/"
            xmlns:stDim="http://ns.adobe.com/xap/1.0/sType/Dimensions#"
            xmlns:xmpG="http://ns.adobe.com/xap/1.0/g/"
            xmlns:dc="http://purl.org/dc/elements/1.1/">
         <xmp:CreatorTool>Adobe Illustrator 29.7 (Macintosh)</xmp:CreatorTool>
         <xmp:CreateDate>2026-01-18T20:34:08+01:00</xmp:CreateDate>
         <xmp:Thumbnails>
            <rdf:Alt>
               <rdf:li rdf:parseType="Resource">
                  <xmpGImg:width>256</xmpGImg:width>
                  <xmpGImg:height>44</xmpGImg:height>
                  <xmpGImg:format>JPEG</xmpGImg:format>
                  <xmpGImg:image>/9j/4AAQSkZJRgABAgEAAAAAAAD/7QAsUGhvdG9zaG9wIDMuMAA4QklNA+0AAAAAABAAAAAAAAEA&#xA;AQAAAAAAAQAB/+4ADkFkb2JlAGTAAAAAAf/bAIQABgQEBAUEBgUFBgkGBQYJCwgGBggLDAoKCwoK&#xA;DBAMDAwMDAwQDA4PEA8ODBMTFBQTExwbGxscHx8fHx8fHx8fHwEHBwcNDA0YEBAYGhURFRofHx8f&#xA;Hx8fHx8fHx8fHx8fHx8fHx8fHx8fHx8fHx8fHx8fHx8fHx8fHx8fHx8fHx8f/8AAEQgALAEAAwER&#xA;AAIRAQMRAf/EAaIAAAAHAQEBAQEAAAAAAAAAAAQFAwIGAQAHCAkKCwEAAgIDAQEBAQEAAAAAAAAA&#xA;AQACAwQFBgcICQoLEAACAQMDAgQCBgcDBAIGAnMBAgMRBAAFIRIxQVEGE2EicYEUMpGhBxWxQiPB&#xA;UtHhMxZi8CRygvElQzRTkqKyY3PCNUQnk6OzNhdUZHTD0uIIJoMJChgZhJRFRqS0VtNVKBry4/PE&#xA;1OT0ZXWFlaW1xdXl9WZ2hpamtsbW5vY3R1dnd4eXp7fH1+f3OEhYaHiImKi4yNjo+Ck5SVlpeYmZ&#xA;qbnJ2en5KjpKWmp6ipqqusra6voRAAICAQIDBQUEBQYECAMDbQEAAhEDBCESMUEFURNhIgZxgZEy&#xA;obHwFMHR4SNCFVJicvEzJDRDghaSUyWiY7LCB3PSNeJEgxdUkwgJChgZJjZFGidkdFU38qOzwygp&#xA;0+PzhJSktMTU5PRldYWVpbXF1eX1RlZmdoaWprbG1ub2R1dnd4eXp7fH1+f3OEhYaHiImKi4yNjo&#xA;+DlJWWl5iZmpucnZ6fkqOkpaanqKmqq6ytrq+v/aAAwDAQACEQMRAD8A6T+dw03UNX0vS9V9aOxt&#xA;4Rcpc28xgeGe6u4bFZ+RZE/cLKW+M8etcnBIYfZ/85N6j5TtU8ueZdKfWNd0tnt73U4rhY45+Ln0&#xA;5FrHU1j4/EevXvkvDtaS3UPOMnnW6k86agZUgtvrkvlXSEuOBtW0iyl1D63MiFS5knhWMPRhTkux&#xA;CnDVbK+nbSYz2sMxFDKiuQO3IA5ShVxV4T5M1UebPzY1nUdUs/MCSWV7DDpMQ9WG0sUhh5FLuNZO&#xA;KtIRupBBr75YRQSzvyx+c3lHzKiTaZDfmyWKWa+1CW2aO1s1hVmYXE7H01JVKgKW6/PImJC0hIPz&#xA;z8susF5NpOs2mgXMiRw+Y7my9PTiJG4xuZS/NUZjQMyAYeBaTnzV+ZWj+X9Xh0VbHUNa1qaE3P6N&#xA;0m3+szRwBuPqyVaNUUtsKtgEbQj/ACh500jzVZT3Fgs9vPZym3v9PvIzDdW8y78JYyTQ03FCRgIp&#xA;Un83eYtNtfO3lnSrubWLOe4mJtHswq6fcyOD+4unapfgI+XFelcIGyoS8/Ory9FqGqadZaRrOrX2&#xA;jTvb38GnWRn4GPYvy5KnE70q1TQ7Y8CaQkn5/wDlM6SNYstK1vUdHVVa61G1sGNvBUfGJZJGjH7v&#xA;9vjyA8cPAVpkmtfmBp+n6Vpmp2Om6lr1vq6CayXSLU3LGIqrh3qYwikOPtEZERQoeXPzR8u60mrC&#xA;aG80W70SL6xqdjqsBtp4oOJb1ioLgpRTupP4jCYrTHp/+cgfLcGnDVpdB19NDkYLBrDWKraSciFQ&#xA;q7Sg8WJ+EsBh4E0nms/mpo+mS2FmNL1W/wBa1C2F6uh2dr6l7Db1p6k8ZdFjAb4d264BFFJp5P8A&#xA;O+keare6eyjuLS7sJfQ1DTb6IwXVvIRyCyx1bqNwQSDgIpU6truK59X06/uZGieu3xL1p9+BVbFX&#xA;Yq7FXYq7FXYq7FXYq7FXYq7FXYq7FXyZ+dnnzWtX/OKHSPL936aWRh0qGW2dGE73JRpVckcCFkfh&#xA;xaoBWvyugNmQSDzn5L/La8n0c/l3eve2kl3Hp+qyXErwukswLxsUuYoSgZIpDzHJdt6bVIJ6qs/M&#xA;EeTNI0WCX8s9VuZNOuT9T8zJWYRiZkLQRh54oHkSVVm5BRxoo5AVFTG+qvqX8pfN6+a/IGkaqzR/&#xA;XPREN9HEwbjPD8DVAA4c+PPj2B79cpkKLEswyKvOPyuikTzl+YrOjKr6whQkEAj0BuPHJS5BLHfy&#xA;70PU9U/5xgGj2kbLqN3Y6nFBCaIzO11ccU+Lpz6b+OSkfUvViNlrej6z5NtvKXmDz7qNjKbaGyvf&#xA;K8mjQ+tE8IVRChS29RgrIOL8q9zQ1w1vdKnnnJ9T8o/mtfape69eeXNC1jT7SKHXILGK+iMtqojM&#xA;Exkin9Ik1bYd98A3Cs0/KKz0aa78w+ZNO8xT+ZJdZltkvbya1FmnqWsRVTGixwo1Y5FDMq9vGuCS&#xA;l35oxSP5y/LpkRmVNYcuQCQB6B3PhgjyKu/KKKRNZ/MAujKH8yXLISCKjgm4rhl0UpF+W1q6/wDO&#xA;Pur27xEEwa0vpFaVBeeg4nxwy+pWPN5k1PSfLv5dafqOr3/ljynNoyvfatYw83a7CqI4HcxTGKi7&#xA;/Z3ruNqg1zVS8svpupec/OlxHPrWu6LP5Uni+uahF6d3dR8yHW2/cwVB3VKx15VxPIKx/SPNNt5g&#xA;8gaX5I8w+d9K0vR2EEN1bCzu/wBIJFBIrJbyTvwtwVMagtxp7kdSRRuks18+G+8q/mvJrM2sXflr&#xA;QNT0uC1i1q2s476JJLd6fV5vVinMdR8QYD+NIjcIZb+UcOiXWoeYvMOneY5/MtxqrWkd9fS2i2ac&#xA;raN1j4BI4Uf4HAYgdhgkpZton/H/AP8AMZN/DIlCZYFdirsVdirsVdirsVdirsVdirsVdirsVfK3&#xA;5GeWNH17R/NGqPYx3vmm3vkk0f6zP9WuRMh+srwkQH05OURPJV8f2a5dM0yLNX1v8mNTa1v/ADPp&#xA;0nlnX59RY3WniG4Ektxp6ug9QW6MKcLyvIhSfGgyNHohMtG0fyd5nvbjSP8AC0Nl5F8uTXdlDd3D&#xA;+jbz3ch+rO8UVKSurhwsrNVS23x9Ekj3qkP/ADiTNS0822cfqfV4LyB4gaeiOYkX4DTkWpGOVT04&#xA;+9TkUvoDKkJfLpl68ruurXcasxIjVbQqoJ+yOUDNQe5Jwqt/RN//ANXq8/4Cz/7J8Vd+ib//AKvV&#xA;5/wFn/2T4q79E3//AFerz/gLP/snxV36Jv8A/q9Xn/AWf/ZPirv0Tf8A/V6vP+As/wDsnxV36Jv/&#xA;APq9Xn/AWf8A2T4q79E3/wD1erz/AICz/wCyfFXfom//AOr1ef8AAWf/AGT4quOlXTWtzA+qXTm4&#xA;iaJJiIEeIsCPUjMcUfxLWorXFWC6t+UOt63pz6PrvnfU7/RJmU3FmYbON5FRgyqZ1i59VGSEvJNs&#xA;6bSZQkUVrqFxZwQxrFHDEIGWiCgNZopXrT/KyKFv6Jv/APq9Xn/AWf8A2T4qr6bp4sYZI/XkuHlk&#xA;aWSWbhyLOd/7tY1p9GBUXirsVdirsVdirsVdirsVdirsVdirsVdir5/86/lr598m+ervz95Aiiud&#xA;NlliuLvy/CrKSeHpzD0hUPyLO3JaMvM0FOtokCKKUwstN/L/APOS0j8xLcTaHfabLI+qaey2zlJl&#xA;VA0rfWInH2EUM60rQct1GDeKpH5i80eY/Pgl/L/8rLF7fQrKdk1TzDIzIjvzMzN6lOSmSYM7Nu8j&#xA;b7b1IFblXr/5XeQrXyP5PtNFT0pLwVl1C6iTh607mpY1JJ4rRAfAdB0yEjZQy3Iqw2G/17zFq95F&#xA;YXv6P02yYJzRQzuakV3p14nvttmmjly6jJIQlwQi6qOTJnmRGXDCKlfXnmS2vbby3a6h9YvpyZZL&#xA;50ClYyNlp8XQKTXruMhlyZoyGCMrkd+LyY5J5YyGKMrkerVtqGu6P5ot9Nv9Q+vW80LSy1UDiArn&#xA;5gjhX5Ywy5cOcQnLiBF/f+pYZMmLMISlxAj9aAtb/wA0Xfl++1k6o1vDDIfThChix22D7cV+KgzH&#xA;hlzzwyy8dAHk0QyZpYpZOKgG9Sv/ADVbeX7LWJdWIacqkdskaj4SpYMzdzRd6jDmy6iOGOQz59KT&#xA;lyZo4o5DPn0TCa98w6l5pbTLO+NmsFuhuCFDKGKqXIU96yUzIlkzZM/BGXDUd/0/e3SyZcmbgjLh&#xA;ob/j4oaLXtZ06512yub1rtLO2ZobhlAKykoiU695Ole2VR1WTHLJGUuLhjsfPYfpa46jJA5ImXFw&#xA;jn57frWjVPM2n6Dba1d6h6qSErb2hQHk0gbi0j7H4QOVPbB4+fHiGWUrvkPffP718bNDEMkpe4fr&#xA;QY8y6jCbOeDXDf3UsiC4sTCyIA3UciADvttT2ykayY4SMnFIneNNX5qYoifEb3FInVfMGqnzDdWt&#xA;3qMukW8bFbfjDzUqDQMd1ajda75bn1eTxjGUzjA5bM82pn4pjKRgOmy/X9a1qzvrOym1CW2sxChb&#xA;UIog/quVqz0+HappQHDqtTlhOMTIxjX1Ac2Wpz5IyETIiNc65q9xrWsJDp2k6dqAvLzUSZBqLLxp&#xA;EWKiikGn2Wr3FMsnqcgEccJcUp/xeTOWfIBGEJcUpfxeS5LvzFo3mWwsLvUfr8N4B6istOIJIrvu&#xA;KUrWuEZM2HPGEpcQkonlxZYxlLiElvl6XzPrr3dzHqZtrD1yAOAdqD4uCVpxHFh3waSWfOZSE6ha&#xA;6Y5s1kSqNs6zeu4dirsVdirsVdirsVdirsVdirsVdirsVdiry38xvyXtfMGr2eo6JK+jy3kgtPMx&#xA;tHEIu9OkPKYMoFDIeNAe9fiBycZUm3oWheX9G0HTYtN0ezisrOIALFEoWpAC8mI3ZiBux3yJNoTD&#xA;ArsVYoPJ+qWV7cS6Lqn1K3um5SQtGJOJ36V+e3TNT/J+SEicU+ES8rdb+SnCROOXCD5L9S8nXk9z&#xA;a39pqTw6lBEIpbhlr6hAILbH4a16b5LN2fKUhOM6mBV96cuhkSJRlUwOfe1a+SpY0vZ7m/a61O7h&#xA;aBbmRTRFccTQEkk8duuCHZpHEZS4pyFX3LDQEcRMrmRVqsnlGT/CqaHFdBTy5SzlKhvjL/Zr4079&#xA;smdAfy/hA/H42yOiPg+GCq6v5WN/Fpdus4jttOK84+NeYUKABuKbKclqND4ggLqMPtZZtJxiIvaL&#xA;GfL9hq+rahquq6df/UjJOycuAfkjEtSp6cRTNZpMWTLOeSEuGy6/TY55ZTnCXDunB8hEaTc2q3pe&#xA;8vZFkuruRa8gpLcQK1+1vWuZn8l/uzHi9UjuXK/k70GPF6pHcppqnlm21DQodKaQxi3VPRlUdGjX&#xA;iCVrvsTtmVn0UcmIY75VXwcjNpBPGIdyjp2jeZIZ42u9a9eCIELCIVHL4SF5N1NDvkMOnzxI4slg&#xA;eTHFgyg+qdgeSW3XkrWr5Y7fUNZNxaRsGFYh6m1ejE1/HMafZuXJQnkuPu3aJ6DJPaU7j7lS98n6&#xA;3cJJaLrH+41zRLd4g3BB9lRU/sjbqMlk7PyyBjx+jupOTRZJXHj9HdTd35Doli+m3r2t1YRmNJSK&#xA;8qsz12I4/E7eOHJ2XtEwlwyiP2/pWfZ308EqMQqWXkyeOW4vb2/a81OWJ4oJnU8Yi6lagVNaV9sl&#xA;j7OIJlKXFMige5lj0JBMpS4p18k08t6ING0tbL1BK/NneQDiCWPhU9gMytHpvBx8N25Gl0/hQ4ea&#xA;aZlOS7FXYq7FXYq7FXYq7FXYq7FXYq7FXYq7FXYq7FXYq7FXYq7FXYq7FWm48Typxp8VelMSpQul&#xA;/oj6u36L+r/V+Z5fVeHDnQVr6e1aUynB4dfu+GvKv0NWLgr0VXl+xF5c2uxV2KuxV2KuxV2KuxV2&#xA;KuxV2KuxV2KuxV2KuxV2KuxV2KuxV2Kv/9k=</xmpGImg:image>
               </rdf:li>
            </rdf:Alt>
         </xmp:Thumbnails>
         <xmpTPg:MaxPageSize rdf:parseType="Resource">
            <stDim:w>841.974976</stDim:w>
            <stDim:h>262.588013</stDim:h>
            <stDim:unit>Pixels</stDim:unit>
         </xmpTPg:MaxPageSize>
         <xmpTPg:NPages>1</xmpTPg:NPages>
         <xmpTPg:HasVisibleTransparency>False</xmpTPg:HasVisibleTransparency>
         <xmpTPg:HasVisibleOverprint>False</xmpTPg:HasVisibleOverprint>
         <xmpTPg:PlateNames>
            <rdf:Seq>
               <rdf:li>Cyan</rdf:li>
               <rdf:li>Magenta</rdf:li>
               <rdf:li>Yellow</rdf:li>
               <rdf:li>Black</rdf:li>
            </rdf:Seq>
         </xmpTPg:PlateNames>
         <xmpTPg:SwatchGroups>
            <rdf:Seq>
               <rdf:li rdf:parseType="Resource">
                  <xmpG:groupName>Standard-Farbfeldgruppe</xmpG:groupName>
                  <xmpG:groupType>0</xmpG:groupType>
               </rdf:li>
            </rdf:Seq>
         </xmpTPg:SwatchGroups>
         <dc:format>image/svg+xml</dc:format>
      </rdf:Description>
   </rdf:RDF>
</x:xmpmeta>                                                                                                                                                                                                
<?xpacket end="w"?>
  </metadata>
</svg>
